<svg width="253" height="67" viewBox="0 0 253 67" fill="none" xmlns="http://www.w3.org/2000/svg"><g clip-path="url(#a)"><mask id="b" style="mask-type:luminance" maskUnits="userSpaceOnUse" x="0" y="0" width="73" height="67"><path d="M72.613.079H.047V66.92h72.566V.08Z" fill="#fff"/></mask><g mask="url(#b)" fill-rule="evenodd" clip-rule="evenodd"><path d="m28.2 50.342 23.838-23.768c2-1.993 5.104-1.993 6.998 0l8.104 8.08c2 1.994 2 5.09 0 6.978L43.302 65.505c-2 1.993-5.104 1.993-6.998 0l-8.104-8.08c-2-1.994-2-5.09 0-7.083Z" fill="#5426FF"/><path d="m28.2 50.342 23.838-23.768c2-1.993 5.104-1.993 6.998 0l8.104 8.08c2 1.994 2 5.09 0 6.978L43.302 65.505c-2 1.993-5.104 1.993-6.998 0l-8.104-8.08c-2-1.994-2-5.09 0-7.083Z" fill="#5426FF"/><path opacity=".5" d="M55.984 42.84c2-1.995 2-5.09 0-6.979l-6.63-6.61L28.2 50.34c-2 1.995-2 5.09 0 6.979l6.63 6.61 21.154-21.09Z" fill="#4911D4"/><path d="M3.941 24.37 26.78 1.496c2-1.993 5.105-1.993 6.999 0l8.104 8.08c2 1.994 2 5.09 0 6.978l-22.89 22.823c-2 1.994-5.105 1.994-7 0l-8.05-8.027c-2-1.889-2-5.09 0-6.978Z" fill="#5426FF"/><path opacity=".5" d="M41.934 16.658c2-1.994 2-5.09 0-6.978L35.83 3.594 14.992 24.371c-2 1.994-2 5.09 0 6.978l6.104 6.034 20.838-20.725Z" fill="#4911D4"/><path d="m70.508 20.593-6.315 1.102c-1.105.21-2.105-.105-2.894-.892L48.091 7.634c-2.894-2.886-7.735-2.886-10.63 0L.258 44.675c-.579.578-.105 1.312.684 1.207l6.893-1.102c1-.105 2 .105 2.684.892l13.05 13.012c3.315 3.306 7.63 3.096 10.946-.315L71.192 21.8c.526-.525 0-1.417-.684-1.207Zm-21.365 7.293L32.2 44.78a4.328 4.328 0 0 1-6.104 0l-3.63-3.62c-.58-.577-.685-1.521 0-2.203l17.26-17.21c1.42-1.416 3.893-1.416 5.314 0l4.104 4.093c.527.525.527 1.521 0 2.046Z" fill="#CD40A7"/><path d="m51.67 41.265-2.79-3.096-11.103.997-5.63 5.614a4.328 4.328 0 0 1-6.104 0l5.683 5.667c3.315 3.305 7.63 3.095 10.945-.315l8.998-8.867Z" fill="url(#c)"/><path d="M28.831 16.186 17.676 27.36c3.999 2.781 8.419 5.877 8.419 5.877s.21.577.579 1.311l13.05-13.011c1.42-1.417 3.894-1.417 5.315 0l-5.42-5.457a7.704 7.704 0 0 0-10.788.105Z" fill="url(#d)"/></g><path d="M122.866 36.753v-8.027h5.21l7.209 8.027h3.473l-8.472-9.392 8.472-9.234h-3.473l-7.209 8.028h-5.21v-12.96h-2.631v23.558h2.631Zm126.24-18.626h-12.419v-4.932h-2.736v23.558h15.155c1 0 2.052-.315 2.736-1.102.79-.787 1.105-1.679 1.105-2.728V22.115c0-.997-.315-2.046-1.105-2.729-.684-.892-1.736-1.259-2.736-1.259Zm1.263 14.796c0 .315-.105.682-.316.892-.21.21-.579.315-.894.315h-11.156c-.316 0-.684-.105-.895-.315-.21-.21-.316-.577-.316-.892V22.115c0-.315.106-.682.316-.892.211-.21.579-.315.895-.315h11.156c.315 0 .684.105.894.315.211.21.316.577.316.892v10.808ZM143.862 13.195h-2.578v1.47h2.578v-1.47ZM97.766 36.753h15.471c.999 0 2.052-.315 2.736-1.102.789-.787 1.105-1.679 1.105-2.728v-5.194c0-.997-.316-2.047-1.105-2.729-.789-.787-1.684-1.102-2.736-1.102H97.766c-.316 0-.684-.104-.895-.314-.21-.21-.316-.577-.316-.892v-5.194c0-.315.106-.683.316-.892.21-.21.58-.315.895-.315h15.471c.315 0 .684.105.894.315.211.21.316.577.316.892v.892h2.578v-.892c0-.997-.315-2.047-1.105-2.729-.789-.787-1.684-1.101-2.736-1.101h-15.47c-1.106 0-2.053.314-2.737 1.101-.79.787-1.105 1.68-1.105 2.729v5.141c0 1.102.316 2.047 1.105 2.729.79.787 1.684 1.101 2.736 1.101h15.471c.316 0 .684.105.895.315.21.21.315.577.315.892v5.194c0 .315-.105.682-.315.892-.211.21-.579.315-.895.315h-15.47c-.317 0-.685-.105-.895-.315-.21-.21-.316-.577-.316-.892v-.892h-2.579v.892c0 1.102.316 2.047 1.105 2.729.843.787 1.737 1.154 2.737 1.154Zm46.096-18.626h-2.578V36.7h2.578V18.127Zm84.353 14.796c0 .315-.105.682-.316.892-.21.21-.579.315-.894.315h-11.209c-.315 0-.684-.105-.894-.315-.211-.21-.316-.577-.316-.892V18.127h-2.578V32.87c0 .997.315 2.047 1.105 2.729.789.787 1.684 1.101 2.736 1.101h11.156c1.105 0 2.052-.314 2.841-1.101.79-.787 1.105-1.68 1.105-2.729V18.127h-2.578V32.87h-.158v.053Zm-25.048 2.676c.79.787 1.684 1.101 2.737 1.101h3.157v-2.57h-3.157c-.316 0-.685-.105-.895-.315-.211-.21-.316-.577-.316-.892V13.195h-2.578v19.728c-.105.997.263 1.889 1.052 2.676ZM176.962 14.77c-.79.786-1.106 1.678-1.106 2.728v15.32c0 1.102.316 2.046 1.106 2.728.789.787 1.683 1.102 2.736 1.102h19.207v-2.57h-19.207c-.316 0-.684-.106-.895-.316-.21-.21-.315-.577-.315-.892V17.498c0-.315.105-.683.315-.892.211-.21.579-.315.895-.315h19.207V13.72h-19.207c-1.053-.053-1.947.367-2.736 1.05Zm-14.366 3.357h-15.155V36.7h2.578V21.957c0-.315.105-.682.316-.892.21-.21.579-.315.894-.315h11.156c.316 0 .684.105.895.315.21.21.316.577.316.892V36.7h2.578V21.957c0-.997-.316-2.046-1.105-2.728-.632-.63-1.421-1.102-2.473-1.102Zm9.577 16.003h-2.579v2.57h2.579v-2.57Zm-5.683 13.274c-.105 0-.211.104-.211.21v4.826c0 .105.106.21.211.21h6.156v1.154h-6.156c-.737 0-1.368-.63-1.368-1.364v-4.827c0-.734.631-1.364 1.368-1.364h6.156v1.154h-6.156Zm11.998.314c.736 0 1.368.63 1.368 1.365v3.358c0 .734-.632 1.364-1.368 1.364h-3.473c-.737 0-1.369-.63-1.369-1.364v-3.358c0-.735.632-1.364 1.369-1.364h3.473Zm-3.473 1.155c-.106 0-.211.105-.211.21v3.358c0 .104.105.21.211.21h3.473c.105 0 .21-.106.21-.21v-3.358a.226.226 0 0 0-.21-.21h-3.473Zm11.945-1.155v4.722c0 .735-.632 1.365-1.369 1.365h-3.473c-.736 0-1.368-.63-1.368-1.364v-4.723h1.158v4.722c0 .105.105.21.21.21h3.473c.106 0 .211-.105.211-.21v-4.72h1.158Zm7.314 1.365v4.722h-1.158v-4.722a.226.226 0 0 0-.21-.21h-3.473c-.105 0-.211.105-.211.21v4.722h-1.157V47.77h4.841c.737-.053 1.368.577 1.368 1.312Zm2.21-.21v3.567c0 .105.105.21.211.21h2.262v1.154h-2.262c-.737 0-1.369-.63-1.369-1.364v-6.715h1.158v1.993h2.473v1.155h-2.473Zm9.314.21v2.256h-5.051v1.102c0 .104.105.21.21.21h4.841v1.154h-4.841c-.737 0-1.368-.63-1.368-1.364v-3.358c0-.735.631-1.364 1.368-1.364h3.473c.789 0 1.368.63 1.368 1.364Zm-1.105 1.101v-1.101a.226.226 0 0 0-.21-.21h-3.473c-.106 0-.211.105-.211.21v1.101h3.894Zm6.736-2.466v1.155h-3.421a.226.226 0 0 0-.21.21v4.722h-1.158v-4.722c0-.735.632-1.364 1.368-1.364h3.421Zm4.894 2.414h-4.21v1.154h4.21v-1.154Zm8.682-2.046h-1.157v-.42c0-.105-.106-.21-.211-.21h-4.841c-.105 0-.211.105-.211.21v1.626c0 .105.106.21.211.21h4.841c.737 0 1.368.63 1.368 1.364v1.627c0 .734-.631 1.364-1.368 1.364h-4.841c-.737 0-1.368-.63-1.368-1.364v-.472h1.157v.42c0 .104.106.21.211.21h4.841c.105 0 .211-.106.211-.21v-1.627c0-.105-.106-.21-.211-.21h-4.841c-.737 0-1.368-.63-1.368-1.364v-1.627c0-.734.631-1.364 1.368-1.364h4.841c.737 0 1.368.63 1.368 1.364v.473Zm2.21.787v3.567c0 .105.106.21.211.21h2.263v1.154h-2.263c-.737 0-1.368-.63-1.368-1.364v-6.715h1.157v1.993h2.474v1.155h-2.474Zm7.893-1.155v1.155h-3.42a.226.226 0 0 0-.21.21v4.722h-1.158v-4.722c0-.735.631-1.364 1.368-1.364h3.42Zm1.737-1.941v1.154h-1.157v-1.154h1.157Zm-1.105 1.941h1.158v6.034h-1.158v-6.034Zm8.314 0v.158l-2.631 2.885 2.631 2.886v.157h-1.368l-2.263-2.465h-1.368v2.465h-1.105v-8.027h1.105v4.407h1.368l2.263-2.466h1.368Zm6.525 1.365v2.256h-5.051v1.102c0 .104.105.21.21.21h4.841v1.154h-4.788c-.737 0-1.368-.63-1.368-1.364v-3.358c0-.735.631-1.364 1.368-1.364h3.473c.737 0 1.315.63 1.315 1.364Zm-1.105 1.101v-1.101a.226.226 0 0 0-.21-.21h-3.473c-.105 0-.211.105-.211.21v1.101h3.894Zm-142.078-2.466v1.155h-3.421a.226.226 0 0 0-.21.21v4.722h-1.158v-4.722c0-.735.631-1.364 1.368-1.364h3.421Zm1.736-1.941v1.154h-1.158v-1.154h1.158Zm-1.158 1.941h1.158v6.034h-1.158v-6.034Zm9.683 0-3.315 6.087h-1.158l-3.368-6.087h1.316l2.631 4.827 2.631-4.827h1.263Zm6.315 1.365v2.256h-5.052v1.102c0 .104.105.21.21.21h4.842v1.154h-4.842c-.736 0-1.368-.63-1.368-1.364v-3.358c0-.735.632-1.364 1.368-1.364h3.473c.737 0 1.369.63 1.369 1.364Zm-1.158 1.101v-1.101c0-.105-.105-.21-.211-.21h-3.473a.226.226 0 0 0-.21.21v1.101h3.894Zm3.42 2.466h-1.158v1.155h1.158V52.65Zm126.766 0h-1.158v1.155H253V52.65Zm-122.767-6.4h1.105v6.4h6.42v1.154h-7.525V46.25Zm12.893 1.468c.737 0 1.368.63 1.368 1.365v3.358c0 .734-.631 1.364-1.368 1.364h-3.473c-.737 0-1.368-.63-1.368-1.364v-3.358c0-.735.631-1.364 1.368-1.364h3.473Zm-3.473 1.155c-.105 0-.211.105-.211.21v3.358c0 .104.106.21.211.21h3.473c.105 0 .21-.106.21-.21v-3.358a.226.226 0 0 0-.21-.21h-3.473Zm13.05-1.155-3.315 6.087h-1.158l-3.368-6.087h1.316l2.631 4.827 2.631-4.827h1.263Zm6.314 1.365v2.256h-5.051v1.102c0 .104.105.21.21.21h4.841v1.154h-4.841c-.736 0-1.368-.63-1.368-1.364v-3.358c0-.735.632-1.364 1.368-1.364h3.473c.737 0 1.368.63 1.368 1.364Zm-1.157 1.101v-1.101c0-.105-.105-.21-.211-.21h-3.473a.226.226 0 0 0-.21.21v1.101h3.894Zm3.368 2.466h-1.158v1.155h1.158V52.65Zm-62.147-5.194c.684 0 1.263.577 1.263 1.26v2.675a1.28 1.28 0 0 1-1.263 1.26h-3.946v-5.195h3.946Zm0-1.154h-5.104v7.502h5.104a2.41 2.41 0 0 0 2.421-2.413v-2.676a2.41 2.41 0 0 0-2.42-2.413Z" fill="#fff"/></g><defs><linearGradient id="c" x1="12.171" y1="59.198" x2="42.055" y2="43.69" gradientUnits="userSpaceOnUse"><stop stop-color="#6311DD"/><stop offset="1" stop-color="#6311DD" stop-opacity="0"/></linearGradient><linearGradient id="d" x1="56.132" y1="-.693" x2="32.135" y2="23.801" gradientUnits="userSpaceOnUse"><stop stop-color="#6311DD"/><stop offset="1" stop-color="#6311DD" stop-opacity="0"/></linearGradient><clipPath id="a"><path fill="#fff" d="M0 0h253v67H0z"/></clipPath></defs></svg>