<svg width="473" height="427" viewBox="0 0 473 427" fill="none" xmlns="http://www.w3.org/2000/svg"><g clip-path="url(#a)"><path fill="#270773" d="M0 0h473v427H0z"/><g opacity=".16" filter="url(#b)"><ellipse cx="472.17" cy="190.712" rx="643.114" ry="586.667" fill="url(#c)"/></g><g opacity=".1" fill="#A785FF"><path d="M46.485 290.011c1.09 1.09-.492.938-.533 1.55.139.154.331.376.544.65.323-1.021.993-1.195 1.838-.903.631.229 1.362-1.012 1.993.229.072.12.946-.164 1.395-.49.486-.013 1.005-.008 1.49-.021-.047-.488-.095-.975-.178-1.776.312-.183.985-.567 1.61-.932l-.078-.208c-.865.162-1.73.324-2.9.546.922-.809 1.591-1.49 2.353-1.999.204-.11.756.418 1.445.802-.047.018.218-.146.511-.38-.078.299-.109.579-.201.913.31.027.62.054.943.046-.02.454.008.89.008 1.396a80.6 80.6 0 0 0 1.619-.547c-.254.338-.372.533-.625.871 1.082-.307 2.474.426 2.455-1.652.003-.716.609-.627 1.17-.222.527.388 1.124.6 1.693.882.042-.106.117-.195.16-.301-.185-.344-.416-.67-.78-1.272 1.45-.421 2.797-.892 4.136-1.241.447-.116.943.046 1.395.017.162-.005.447-.117.475-.187.229-1.49 1.158-1.409 2.213-1.14.181.048.402-.307.653-.435l2.645-1.221c.678-.296 1.356-.593 2.054-.838.285-.112.603-.208.94-.251.048-.019.204.396.19.432-.265.163-.564.311-.862.458-.11.073-.184.162-.21.529 1.002-.305 1.99-.574 2.958-.896.053.068.073.12.126.189-.64.4-1.245.817-1.884 1.218.02.052.04.104.045.191.399-.098.784-.16 1.183-.257.072.12.097.259.17.379-1.987.872-3.96 1.708-6.041 2.617.382.654.716 1.327 1.171 2.101-.717.193-1.34.348-2.232.581.396-.394.642-.61.854-.843-.857-1.48-2.02-.664-3.215-.581.179.257.338.463.762 1.011-.901-.152-1.56-.309-2.495-.478.288-.321.534-.537.91-.983-1.875.589-3.56 1.104-5.232 1.583.168.083.383.147.65.28-1.105 1.478-2.843.405-3.9.851-.185.668-.235 1.403-.459 1.461-1.5.353-2.642 2.024-4.528.92-.489-.285-1.329.016-1.984.155-.176.04-.282.409-.413.639.106.137.178.258.298.359l-1.632-.429c-.022.158-.092.334-.115.492.88.309 1.725.602 2.752.942l-.433 1.094c-.731-.278-1.392-.733-1.738-.567-.835.388-1.552 1.088-2.308 1.683-.586.469-1.172.938-1.772 1.443-.073-.121-.193-.222-.265-.343l.686 1.607.047-.019c-1.995-1.032-2.293-.884-2.319 1.002.396.112.76.208 1.17.285.114.521.208.99.323 1.511.245.29.555.824.683.803.988-.27 1.903-.66 2.838-.998 1.47-.579 2.955-1.194 4.445-1.721.57-.224 1.217-.241 1.786-.465.38-.149.642-.61.93-.932l-.048.019c1.083-.307 2.037-.593 3.08.515.472.529 1.524.502 2.283.71-.56-1.924.165-3.252 2.04-3.842.19-.075.374-.236.578-.346 1.448.085 2.517-.694 3.61-1.333-.024-.139-.097-.259-.122-.398-.575.137-1.136.238-1.71.375.025-.367.097-.753.14-1.365-.511.38-.743.56-.975.741.026-.368.037-.7.037-1.206-.642.61-1.1 1.058-1.756 1.704.95.133 1.555.222 2.16.311-.421.255-.843.511-1.373.839-.02-.052.011.174.042.4-.633-.019-1.286-.089-1.92-.108.123-.614.145-1.278.369-1.843.608-1.639 2.324-1.421 3.48-2.115.326-.218.91.029 1.51.032.183.344.387 1.247.928 1.6s1.387.139 2.101.155c.472.023.957.011 1.443-.002-.022.158.003.297-.02.455-.29.025-.58.05-.837.091a.758.758 0 0 1-.03.28c.912.326 1.838.617 2.75.943.056-.141.146-.266.188-.372-.511-.633-.988-1.249-1.605-2.019.731-.229 1.605-.513 2.43-.778-.236-.92-.423-1.561-1.595-.623-.695.542-1.853.431-2.704.558-.34-.253-.667-.542-.993-.83.413-1.652 1.844-1.829 3.27-2.092-.226.268-.418.552-.672.89 1.272-.382 2.45-.726 3.613-1.035l-.02-.052c.031.732.082 1.517.104 2.372.915-.39 1.875-.589 2.57-1.131.723-.612 1.06-.149 1.507.241-.05.228-.135.44-.213.739 1.03.13 2.012.28 3.008.394-.245-.797-.379-1.37-.63-2.254-.41.43-.698.751-1.01.934-.17.127-.486.012-.762.002l.687-1.432a9.982 9.982 0 0 0-.854-.677c.53-.328.951-.583 1.34-.855-.02-.052-.073-.12-.093-.172-.466.064-.918.093-1.417.141.639-.4 1.311-.784 1.95-1.185.684-.209 1.32-.4 2.004-.61-.539.45-1.125.919-1.772 1.442 1.057.061 2.148.137 3.206.198-.092.334-.204.616-.352 1.091.723-.106 1.331-.226 2.054-.332-.363.411-.603.714-.966 1.125 1.29-.12 2.38-.043 3.368-.313 1.083-.307 2.096-.944 3.114-1.494 1.692-.934 3.776-1.04 5.007-2.835.683-.21 1.367-.42 2.084-.613.48-.099.941-.251 1.421-.35.086.085.159.205.245.29-.505.467-.991.986-1.549 1.385a13.28 13.28 0 0 1-2.24 1.21c-1.58.651-3.165 1.216-4.73 1.832-.19.075-.36.201-.517.293-.923.512-1.861 1.06-2.804 1.521-1.384.664-2.774 1.241-4.164 1.818-1.043.411-2.14.753-3.203 1.112-.095.038-.21.023-.237.094-1.533 2.658-4.535 1.338-6.56 2.612-.218.146-.378.447-.556.696.187.135.388.234.708.436-.993.689-1.82 1.461-3.108.568-.254-.168-.728.019-1.094.133-.522.205-1.024.463-1.716.795.03.226.058.662.097 1.272-.404.011-1.038-.008-1.894.031.39-.481.617-.749.81-1.033-.087-.085-.207-.187-.294-.272-.248.425-.463.867-.778 1.26a.686.686 0 0 1-.55.276c-.29.024-.63-.229-.901-.152a286.361 286.361 0 0 0-4.89 1.627c.282.604.486 1 .729 1.501-2.004.103-3.926.205-5.849.307l.033.523c.438.006.83.031 1.43.033l-.727 1.835-.401-.2.404-1.023a85.361 85.361 0 0 0-3.435.787c-.223.058-.53.328-.58.556-.4 1.617-1.105 1.984-2.654 1.849-.767-.085-1.549.372-2.327.618 1.507-.772 3.027-1.579 4.534-2.351l-.175-.467c-1.87.17-3.207 1.829-5.308 2.179.522.301.776.469 1.01.586-.142.562-.251 1.141-.394 1.703.676-.087 1.37-.122 2.04-.296.223-.058.383-.359.58-.556.199.309.363.601.614.979.224-.058.623-.155 1.022-.253l.156.415c-1.01.428-1.987.872-3.059 1.353.494 1.385 1.64 1.32 2.598 1.837-.837.091-1.655.235-2.587.363.2.606.421 1.264.642 1.922a27.19 27.19 0 0 1 1.127-.623c.363.096.893.274 1.752.532-1.083.307-1.895.537-2.93.826.695.977 1.22 1.575 1.621 2.281.639 1.118 1.721 2.33 1.727 3.43.013 1.484.9 2.178 1.42 3.195.038.103.11.224.083.294-.72 2.429.887 3.732 2.67 5.502-.595.086-.947.164-1.46.247 2.29 1.601 3.049 4.34 4.444 6.889a87.49 87.49 0 0 1-1.945-1.26c.427.845.761 1.517 1.096 2.19 1.78.461 1.94.666 1.04 1.824.12.102.288.185.347.34.518 1.524 1.673 2.35 2.759 3.352 1.085 1.003 2.053 2.2 2.974 3.417.616.77 1.062 1.666 1.57 2.509l-.327.218c-.449-.687-.884-1.409-1.386-2.165a80.1 80.1 0 0 0-.36 1.214c-.376-1.579-1.358-2.741-2.572-3.723-.034.49-.053.944-.073 1.399-.301-.15-.678-.21-.937-.465-.64-.613-1.25-1.295-1.875-1.943-.173-.17-.38-.357-.717-.313 1.085 2.015 2.203 4.047 3.275 6.097-.09.125-.179.249-.254.339-.754-.121-1.54-.258-2.375-.376-.965 1.125-.422 2.281.332 3.414-.09.125-.179.249-.302.357-.513-.423-1.102-.757-1.459-1.272-.443-.6-.655-1.38-1.099-1.98.03 1.239.273 2.245 1.224 3.181.812.783 1.214 1.995 1.861 2.991a7.444 7.444 0 0 0 1.56 1.829c-.355-.725-.695-1.484-1.127-2.416.53.178.845.293 1.194.423.09-.124.245-.216.24-.303-.265-1.861 1.348-1.484 2.151-2.098.062-.054.21-.023.23.029.953 1.739 2.58 3.095 2.624 5.311a214.522 214.522 0 0 1-2.81-3.63c-.429.378-1.456.544-.845 1.733.427.845.982 1.669 1.504 2.476.072.121.173.17.279.307.1-.456.173-.842.187-.877.692.174 1.283.298 1.86.458 1.78 1.98 3.343 4.106 4.699 6.551-.341.253-.762.508-1.117.796.145.748.31 1.547.46 2.381.11-.073.232-.181.477-.396.003.296-.014.541.003.803.162-.004.29-.025.385-.062.366-.115.706-.368 1.05-.324.18.048.917.413.303.952.491.582.968 1.198 1.473 1.744.053.068.455-.239.924-.513.471 1.036.976 2.088 1.448 3.124.061-.054.26-.251.49-.432.054.069.12.102.174.17-.235.391-.422.762-.656 1.152-.614-.473-.706-.139-.829.475-.22 1.368.625 2.674 2.293 3.417.324-.009.614-.033 1.295-.033-.302.357-.427.674-.678.803-.327.218-.712.28-1.125.413.742 1.465 1.44 2.739 2.09 4.032-.124.108-.266.164-.389.272-.797-1.324-1.629-2.665-2.427-3.989-.691-1.187-.669-2.864-2.424-3.692.472 1.036.826 1.76 1.133 2.503-.667.471-1.273.888-1.892 1.341.452.983.942 2.071 1.447 3.123-.028.071-.075.089-.103.16-.586-.544-1.138-1.071-1.724-1.615l-.226.268c.748 1.046 1.515 2.144 2.262 3.19-.09.125-.198.197-.287.322a62.731 62.731 0 0 0-1.072-1.038c-.094.037-.203.11-.298.147.312.324.61.683.923 1.007l-.38.149a38.81 38.81 0 0 0-1.77-1.089c-.09.124-.165.213-.255.338 1.456 1.988 2.946 3.993 4.489 6.067-1.825-.652-3.133-2.103-3.616-3.819-.044-.191-.075-.417-.181-.554-.505-.546-1.01-1.092-1.529-1.603-.365-.392-.759-.714-1.124-1.106l-.268.374c.485.494.937.971 1.423 1.465-.056.141-.145.266-.201.407-.79-.434-1.613-.884-2.623-1.47.775 1.482 1.44 2.74 2.142 4.101a6.456 6.456 0 0 1-.92-.203c.089.382.172.677.287 1.197a86.451 86.451 0 0 1-2.135-1.691c-.07.683-.109 1.085-.176 1.559a55.557 55.557 0 0 1-6.31-7.941c.109-.073.198-.197.307-.27.41.583.82 1.166 1.244 1.714.11-.072.17-.126.28-.199-.692-1.187-1.398-2.339-2.162-3.647-.249-.08-.746-.242-1.256-.369.098.259.262.552.38.863-.062.054-.157.092-.218.146-.536-.772-1.038-1.528-1.574-2.3-.128.021-.242.006-.37.027-.04.403-.222.861-.07 1.189.646 1.503 1.355 2.952 2.194 4.676-.664-.245-1.127-.39-1.576-.57.315.62.583 1.259 1.102 2.276-.662-.454-1.016-.672-1.658-1.075.664 1.258 1.197 2.24 1.71 3.169-.223.059-.46.152-.73.229.083.294.153.624.298.865 1.252 1.592 2.547 3.078 3.738 4.724.53.685.828 1.55 1.004 2.524-1.69-1.598-3.429-3.178-5.058-4.83-.553-.527-.893-1.287-1.384-1.868-.226-.239-.575-.369-.89-.483-.496-.162-.988-.237-.298-.866.061-.054-.023-.349-.129-.486-1.486-2.721-2.898-5.531-4.555-8.125-.574-.876-1.001-1.721-1.305-2.673-.181-.554-.234-1.129-.217-1.881.468.739.97 1.495 1.44 2.234l.426-.169c-.803-.904 1.128-1.635-.05-2.81-.215.442-.326.725-.583 1.273-.237-1.426-.803-1.918-1.945-1.767-.385.063-.876-.519-1.33-.786.07-.177.159-.301.228-.478.344.044.706.139 1.345.245-.393-.828-.694-1.484-.995-2.14-.143.056-.271.077-.447.117l-.419 1.058c-.468-.739-.845-1.305-1.221-1.872.58-.05.918-.093 1.289-.12-.137-.364-.212-.781-.458-1.071-.178-.258-.541-.353-.828-.538l.02.052c-.037-.313.022-.664-.076-.924-.15-.327-.457-.564-.717-.819.075-.09.184-.162.273-.287.472.53.896 1.077 1.58 1.881-.045-1.711-.625-2.674-2.015-3.109.11-.073.266-.164.374-.237-.401-.706-.85-1.393-1.238-2.134-.257-.465-.405-1.002-.647-1.502-.243-.5-.594-.928-.79-1.447-.2-.606-.15-1.341-.412-1.893-.525-1.104-1.225-2.169-1.844-3.235-.692-1.188-1.336-2.393-2.218-3.506.09.382.193.729.301 1.162-.968-.184-.554-2.343-2.09-1.5-.194-.519-.384-.951-.56-1.418.048-.018.109-.072.156-.091.212.274.391.531.882 1.112.05-1.241.09-2.15.115-3.024 0 0 .187.135.312.324.16.206.249.588.435.722.288.185.679.21 1.041.306.045-.316.199-.704.1-.963-.37-.986-.775-1.989-1.302-2.883-.203-.397-.733-.575-1.127-.897-.2.407-.402.814-.756 1.609-.324-1.005-.516-1.733-.736-2.391.499-.048.884-.11 1.27-.173-.171-.379-.294-.778-.464-1.158-.385-.95-.817-1.882-1.236-2.849l.327-.218c.382.654.798 1.324 1.194 1.942.109-.072.251-.128.346-.166-.784-1.865-1.554-3.767-2.396-5.788.062-.054.274-.287.321-.305-1.013-1.389-1.886-2.624-2.792-3.875-.048.019-.11.073-.157.091.276 1.023.553 2.047.82 3.192-.547-.44-.974-.778-1.5-1.166 0 0 .144-.266.373-.743-.49-.075-.901-.152-1.311-.229.137.364.22.658.279.814a178.209 178.209 0 0 1-3.66-2.997c.264-.67.658-1.361.79-2.098.058-.351-.489-.791-.899-1.374.145-.266.408-.727.67-1.187.81.485 1.57.99 1.52 2.231a50.973 50.973 0 0 1-1.202-.301c1.104 1.561 1.997 2.847 3.94 2.798a7941.72 7941.72 0 0 0-2.76-6.897c-.094.037-.223.058-.317.095-.006.42.002.804-.003 1.223-.087-.085-.154-.119-.24-.204-.302.357-.584.766-.885 1.123-.374-.27-.728-.488-1.289-.892-3.27 1.585-6.806 3.335-10.347 4.997-1.92.905-3.913 1.689-5.846 2.63-.787.369-1.583.861-1.686 2.033-.025.368-.502.764-.848.93-1.12.5-2.264.862-3.397 1.397-.488.222-.826.772-1.275 1.098-.293.234-.653.436-1.013.637-.109.073-.343-.044-.371.027-.944 1.98-3.134 1.949-4.613 3.157-2.16 1.714-4.571 3.05-6.923 4.543-.748.473-1.516.894-2.283 1.315-.073-.12-.145-.24-.251-.377 4.8-3.528 9.614-7.092 14.447-10.603a1.265 1.265 0 0 0-.165-.293c-1.52.807-3.06 1.563-4.562 2.422a45.864 45.864 0 0 1-11.692 4.752c-1.07.272-2.344.357-3.142 1.059-2.934 2.555-6.67 3.192-10.021 4.779-.299.148-.642.104-1.303.156.53-.834.868-1.384 1.013-1.65.876.012 1.49-.021 2.494-.029-.597-.718-.929-1.094-1.121-1.316 2.838-1.505 5.757-3.011 8.69-4.553-.025-.139-.098-.26-.123-.399-.427.168-.873.285-1.267.469-2.921 1.21-5.77 2.54-8.75 3.595-1.444.508-3.029.566-4.583.851-.175.039-.287.321-.443.413-.7.454-.969.321-1.714-.428-.173-.17-.653-.071-.97.025-.305.06-.617.243-.916.39 0 0-.053-.068-.226-.239.862-.458 1.677-.898 2.526-1.322.34.254.7.559.954.727a723.603 723.603 0 0 1 3.41-2.445l-.017-.262c-.884.11-1.735.237-2.606.312.02.052.053.068.073.12-.815-.066-1.714-.427-2.445-.199-1.529.423-2.988 1.177-4.498 1.652-.508.17-1.172-.075-1.839-.11.238-1.613 1.6-1.613 2.554-2.406-.324.009-.7-.052-.985.06-1.627.671-2.076.49-3.136-1.386 1.557-1 3.067-1.982 4.562-2.928-.053-.069-.245-.291-.39-.532.256-.041.494-.135.75-.176 1.468-.369 2.902-.755 4.499-1.146-.818-1.376-1.468-1.149-2.302-.761a98.414 98.414 0 0 1-7.49 3.038c1.6-1.613 3.653-2.451 5.955-3.715-.633-.019-.843.004-1.085.01 1.264-.765 2.394-1.598 2.224-3.497-2.12 1.312-4.208 2.64-6.315 3.917 1.041-3.24 4.331-2.748 6.006-4.957-.137-.363-.595-.421-1.139-.058-1.727 1.127-3.493 2.15-5.553 3.408.17-.633.254-.845.374-1.249-.525-.092-1.03-.131-1.716-.218.45-.326.742-.561 1.055-.743l-.078-.208c-.413.133-.873.285-1.381.455.022-.664.017-1.258.039-1.922.913-.181 1.733-.534.745-1.783.796-.492 1.558-1 2.372-1.44.252-.129.561-.102.885-.11.21-.023.605.089.605.089.266-1.177 1.295-1.046 2.035-1.397.44-.203.809-.527 1.306-.871-.025-.139-.1-.557-.181-1.061-.352.079-.69.122-.994.183l-.312-.831c.6-.504 1.16-1.112 1.833-1.496.625-.365 1.398-.699 2.127-.718 1.18-.048 1.657-.95 2.394-1.598.846-.72 1.856-1.148 3.011-1.841-1.124-.6-1.956-.421-2.391.376-.553.992-1.05 1.336-1.78.552-3.98 2.162-7.945 4.29-11.877 6.433a4.432 4.432 0 0 1-.262-.552c.848-.423 1.735-.743 2.511-1.286 2.124-1.522 4.208-3.147 6.332-4.668 2.743-1.974 5.559-3.827 8.336-5.784 1.674-1.195 3.315-2.407 5.042-3.534a730.927 730.927 0 0 1 7.8-5.037c-.326 1.23.098 2.285-.899 2.677-.237.093-.519-.004-.736.141-.796.492-1.538 1.052-2.28 1.613 0 0 .267.639.449.687.376.06.943.045 1.121-.204.955-1.299 2.024-.558 3.008-.112.885.397 1.184.249 1.58-.651.452-1.042 1.273-1.901 1.926-2.844.538.056 1.303 1.364 1.42-.35.04-.403.893-.739 1.356-1.1.073.12.179.257.251.377-.522.712-1.077 1.407-1.674 2.209.541-.154 1.021-.254 1.468-.37-.05-.278-.087-.591-.143-.957.631.229 1.195.424 1.873.633-.737.648-2.185.563-1.44 2.325a85.93 85.93 0 0 1 1.4-1.415c.257-.042.609-.121 1.089-.22.005.087.103.346.1.556-.003.209-.067.473-.117.701.304-.06.87-.074.898-.145.132-1.243 1.038-1.511 1.937-1.656.98-.147 1.22-.957 1.607-1.735.146-.266.458-.448.533-.538.698.262 1.326.7 1.873.633.418-.045.711-.786 1.04-1.214.12.102.207.187.341.253.006-.419-.003-.803-.005-1.1.644-.313 1.194-.589 1.791-.884-.784-.346-1.462-.556-2.07-.942-1.236-.824.435-1.303-.13-2.302 1 .708.289 2.507 2.038 2.236-.345-.341-.59-.631-.884-.903.982-.357 1.931-.731 2.927-1.123.04.104.112.224.151.328-.421.255-.81.527-1.34.855l1.306.648c-.51.379-.96.705-1.41 1.031.093.172.152.328.258.465 1.554-.791 3.094-1.546 4.587-2.283-.348-.637-.586-1.05-.9-1.671-.048.019-.467.065-1.17.222.533-.537.854-.842 1.312-1.291l-1.674-.83a41.898 41.898 0 0 1-.335 1.86l-.386.062c-.253-.674-.493-1.384-.806-2.214-.147-.032-.49-.075-1.11-.129.505-.467.86-.756 1.18-1.061l-.117-.311c-.982.357-1.93.731-2.913 1.088l.02.051c.524-.415 1.01-.934 1.593-1.193.901-.355 1.384-.664 1.105-1.984-.77-3.42-1.64-6.891-1.767-10.415-.13-3.314-.228-6.612-.406-9.908-.055-.872-.501-1.768.73-2.044.047-.019-.026-.646-.143-.957-.747-2.059-.284-3.939.235-5.961.405-1.529.96-2.731 2.03-4.016.278 1.32.507 2.362.741 3.491-.033-.016.215.065.463.146-.092.334-.346.672-.296.95.661 2.48 1.431 4.888 2.025 7.335.301 1.162.7 2.077 1.771 2.609-.245.216-.471.483-.67.68.55.737 1.041 1.318 1.518 1.935.265-.671-.292-2.298-.895-2.597-.053-.575-.086-1.098-.14-1.672-.08.002-.161.004-.256.041.145-.266.257-.548.257-.548-.357-.515-.717-.82-.82-1.166-.173-.677-.123-1.412-.248-2.107-.374-1.789-.815-3.611-1.233-5.591.037-.193.17-.633.257-1.055-.552.486-.935.845-1.364 1.223.008-.629-.017-1.274-.028-1.955.39.025.714.016 1.072.025.072-.386.097-.754.198-1.21.91.535 1.752 1.038 3.016 1.791-.061-1.972-.1-3.595-.13-5.34.195.012.633.018 1.024.043-.012.332-.056.648-.067.98l.895-.442a40.072 40.072 0 0 1-.373-1.283c.376.061.714.017.934.168 1.847 1.001 2.104.959 3.24-.799-.123.615-.293 1.248-.416 1.862.134.067.248.081.382.148.168-.424.369-.831.503-1.271.148-.475.262-.967.524-1.428-.633.995 1.886 2.117.056 2.898l1.942.963c1.085-1.023 1.074-1.198-.513-2.956-.366-.392-.717-.819-1.395-1.535 1.272.124 2.21-.424 2.756 1.029.137.363 1.114.426 1.744.654.1-.457.173-.843.288-1.335 1.512 1.848 3.28 2.64 5.745 1.879-.586-.544-1.038-1.021-1.624-1.565a30.073 30.073 0 0 0 1.806-.413 14.656 14.656 0 0 1-.24-1.216c1.353-.891 1.342.961 2.251 1.496.062-.56-.044-1.204.202-1.42.306-.269.898-.145 1.397-.193-.17.633-.304 1.073-.438 1.513a1.37 1.37 0 0 1-.65.733c.041 3.946.383 8.04 1.41 12.432.435-.797.683-1.222.974-1.754.351 1.441.744 2.775 1.042 4.147.065.243-.175.546-.287.828a27.558 27.558 0 0 0-.773-.678c-.5 2.579.331 4.933.875 7.608.123-.614.201-.913.274-1.299.153.118.32.201.326.288.047.488.142.957.109 1.447-.079.805.212 1.287.984 1.459-1.275 1.098-.198 2.729-.88 4.249.857-.546 1.449-.928 2.088-1.329-.09-.888-.198-1.828-.287-2.716-.377-.061-.672-.123-.968-.185.385-.569.756-1.102 1.141-1.671.115.015.23.029.391.025.148 1.55.31 3.065.482 4.755 2.751-1.083 5.584-2.169 8.383-3.271.072.121.097.26.17.38-2.607 1.83-5.802 2.314-8.606 3.835.217.868.415 1.683.647 2.516.148.031.262.045.396.112.134-.44.282-.916.382-1.372.115-.492.215-.949.33-1.44.114.014.262.045.363.095.005.594.058 1.168.086 1.604a28.926 28.926 0 0 0 1.936-.137c.344-1.475 1.714-.585 2.785-.56-.217-.867.7-1.974 1.507-1.785 1.599.413 2.704-.558 3.96-1.201.597-.295 1.45-.125 2.227-.162.36-1.721 2.414-2.559 4.224-1.366-.87.581-1.772.936-2.313 1.596-.556.695-.405 2.036-1.898 1.76-.343-.043-1.68-.411-1.457 1.05-.014.036-.555.189-.831.179-.81.021-1.657-.063-2.453-.077-.002-.297-.025-.646-.047-.994-1.194.589-2.294 1.141-3.692 1.841 1.133-.029 1.909-.067 2.846-.108-1.574 1.245-2.95 2.293-4.306 3.393l.048-.019c-1.097-.164-1.853.432-2.372.934.934.168 1.693.376 2.486.6Zm-34.14 4.298c.114-.492.181-.966.354-1.808-.773.334-1.333.436-1.62.757-.152.179.15.835.225 1.252.48-.1.784-.16 1.088-.22-.43 1.39-.475 2.719.736 3.91a76.5 76.5 0 0 0 1.334-2.461c-.452-.478-.831-.835-1.197-1.227-.178.249-.31.479-.413.639a5.334 5.334 0 0 0-.507-.842Zm21.74-19.015c-.16-1.725-.285-3.433-.454-5.332-1.075 1.704-.428 3.207-.01 4.68.064.243.352.428.51.633-.06.054-.17.127-.164.214.276 3.049.552 6.098.875 9.128.01.174.25.377.432.425.134.067.466-.064.447-.116.086-1.434.472-3.016.003-4.261-.298-.865-.465-1.961-1.068-2.767-.106-.136.1-.456.023-.664-.14-.66-.374-1.282-.595-1.94Zm-16.838-14.132c.441.809.896 1.583 1.52 2.737.258-2.067.526-3.96.738-5.711-.84-.206-1.484-.399-2.357-.621-.472.99-1.041 2.227-1.756 3.729.647-.016.904-.058 1.066-.062-.036-.313-.212-.78-.123-.905.477-.396 1.008-.724 1.538-1.052.106.137.198.309.337.463-.31.479-.62.959-.963 1.422-1.183 1.776-.17 3.671-.053 5.502.064.749.37 1.492.549 2.256.095-.038.176-.04.27-.077-.242-2.526-.504-5.104-.766-7.681Zm32.47 58.138 1.33 1.799.067-.473c.541-.153 1.102-.255 1.644-.409l-.017-.261c-.62-.054-1.225-.143-1.844-.197.111-.789-.572-.579-1.18-.459.223-1.577-1.41-.994-1.767-2.015-.63.784-1.11 1.39-1.652 2.05 1.138 1.578 2.45 3.325 3.8 5.176-.324.009-.52-.004-.681 0 .053 1.588.817 2.389 2.28 2.439.055.365.144.747.133 1.079-.011.332-.137.65-.243 1.019.363.602.722 1.414 1.252 2.099.55.737 1.236 1.33 1.895 1.994.061-.054.122-.108.198-.197-1.085-2.015-2.17-4.03-3.27-6.01.084-.212.338-.55.3-.654-.489-.791-1.038-1.528-1.555-2.248.154-.388.47-.78.358-1.004-.544-1.157-1.183-2.275-1.788-3.377-.092-.173-.246-.291-.285-.395.41.077.734.069 1.024.044Zm-29.638-38.671c.385.445.734 1.082 1.183 1.262.999.411 1.378 1.275.82 2.18-.282.408-.55.782-1.038 1.51.996.115 1.716.218 2.402.306 1.602.203 1.602.203 1.116 1.735.354-.289.893-.739.81-1.034-.188-.641-.707-1.152-1.083-1.718.795-1.505.176-3.078-.052-4.626-.377-2.593-.557-5.173-.847-7.68L22.25 272c.296 2.088.566 4.037.859 6.334-.597-.212-1.142-.355-1.672-.533-.095.037.011.68-.243 1.019-.399.604-.131 1.749-1.197 1.812-.949-.133-.212-.781-.368-1.196-.117-.311-.12-.608-.19-.938-.175.039-.337.044-.513.083.042 1.413.07 2.862.11 4.275.115.015.263.046.392.025-.294.235-.587.469-.818.65.454.774.856 1.48 1.258 2.185.128-.02.243-.006.371-.027 0-.506.218-1.158 0-1.519-.51-1.139-.245-2.316-.161-3.541Zm40.61 93.239c.441.303 1.524-.004 1.021 1.266-.07.177.463.652.728.994.073-.386.246-.722.224-1.071-.047-.487-.223-.954-.37-1.492.317-.095.602-.207 1-.305-.381-.654-.71-1.239-1.132-1.997 0 .507-.538.451-1.361 0-.095.544-.162 1.017-.243 1.526-.35-.131-.74-.156-1.027-.341-.541-.352-1.364-.803-1.426-1.255-.136-1.376-.008-1.397-1.241-1.924l.29-.532c-.63-.734-1.208-1.401-1.752-2.05.09-.125.198-.197.288-.322.295.062.61.177.973.272-.886-2.212-2.708-3.58-5.206-3.848 1.727 2.924 3.314 5.695 4.823 8.258-.262.461-.61.837-.552.992.203.397.647.997.87.939 1.122-.204 1.211.685 1.551 1.444.131.276.335.673.53.685 1.044.096 1.493.783 1.716 1.737.416 1.683 1.928 2.011 3.097 2.802-.89-.99-1.733-1.999-2.589-2.972.234-.39.44-.71.675-1.1l-1.339-.664c.12-.405.28-.706.452-1.042Zm-11.408-23.806c.28.814.404 2.016.753 2.146 1.82.565 1.11 2.661 2.143 3.595 0 0-.18.249-.268.374 1.942.456 2.5 1.577 1.813 3.009.778.766 1.49 1.499 2.388 2.366a1417.84 1417.84 0 0 1-.694-4.016c.095-.037.176-.039.27-.077a75.26 75.26 0 0 0 1.312 2.254c.402-.813.809-1.54 1.183-2.283.349-.882-2.271.478-.974-1.284-.814-.573-1.662-1.163-2.53-1.804.103-.666.22-1.368.29-2.05-.175.039-.446.116-.465.064a63.435 63.435 0 0 1-1.378-2.794c-.02-.052-.012-.174-.003-.297.296.063.61.177.893.274-.357-.514-.955-.726-1.259-1.172-.998-1.424-2.039-2.742-2.437-4.67-.4-1.928-1.813-3.516-3.44-4.871l.223-.565c-.544-.649-1.049-1.195-1.752-2.05-.061.56-.29 1.037-.125 1.33.853 1.689 1.816 3.306 2.75 4.994.276.516.38 1.369.78 1.569 1.46.766 1.2 2.536 2.054 3.719 1.216 1.785 1.506 4.292 2.198 6.492-.207-.187-.575-.369-.74-.662-1.032-1.947-2.017-3.912-3.048-5.859-.165-.293-.458-.565-.718-.82-.033-.017-.265.164-.279.199.104.347.207.693.371.986.184.345.383.654.6 1.015-.304.06-.622.156-.926.216-.028.07-.037.193-.064.263.334.166.764.295 1.08.409ZM16.39 281.754c-.712-.226-1.189-.336-1.685-.498.123-.108.226-.268.349-.376-.463-.651-.94-1.268-1.404-1.919-.108.072-.203.11-.312.182.295 2.088-.238 4.145.71 6.303.806 1.709.954 3.765 1.42 5.727.538-.451 1.297-.75 1.412-1.241.142-.563-.05-1.798-.352-1.947-1.233-.527-.772-1.185-.6-2.028.093-.334-.278-.814-.473-1.332.597-.295.335-.847-.446-1.403.934-.339 1.604-.513 1.852.581.237.919.251 1.897.488 2.816.12.608.463 1.158.678 1.729.142-.056.318-.095.46-.151-.128-1.499-.27-2.962-.44-4.861.458-.449-.215-1.077-.493-1.891-.24-.71.17-1.646.31-2.505-1.328.017-1.507.266-1.005 1.527-.262-.045-.477-.11-.773-.172.09.382.145.747.304 1.459Zm26.678 66.197c1.054 3.815 3.079 7.099 5.09 10.417.901-.861 1.666-1.579 2.459-2.368-.832-.328-1.543-.554-2.274-.832.243-.513.382-.866.555-1.202a13.449 13.449 0 0 1-1.174-.371c.044 1.203-.598.801-1.03.375-.26-.255-.279-.813-.421-1.264-.424-.548-1.311-1.241-1.356-1.938.006-1.432-.848-2.109-1.85-2.817Zm12.712 33.063c.675 1.432 1.361 2.532 1.682 3.746.287 1.198 1.071 2.051 1.514 3.157.477 1.123 1.462 2.075 2.224 3.086a.757.757 0 0 1 .17-.127l-.764-1.814.237-.093c.153.118.293.272.533.475-.276-1.529-.474-2.851-1.97-3.424-.167-.083-.331-.376-.41-.583-.596-1.731-1.514-3.157-3.216-4.423Zm1.166-14.489c.1.05.248.081.349.131.226-.268.452-.536.725-.822-.039 2.428.265 2.874 2.154 3.769.234.116.365.392.572.579.153.118.349.131.55.23.05-.228.19-.581.117-.701-1.127-1.91-2.288-3.836-3.414-5.745-.162.004-.277-.01-.439-.006-.206.826-.427 1.687-.614 2.565Zm-8.9-55.861c-.979-.866-1.612-1.391-2.265-1.968-.047.525-.087.928-.14 1.366a21.1 21.1 0 0 0-1.278-.212c.081.505.117.818.148 1.044l-1.44-.714a101.59 101.59 0 0 1-.48 2.632c1.616-.338 2.799-.596 3.968-.818-.039-.103-.03-.226-.07-.33a13.263 13.263 0 0 1-1.099-.46l.084-.212c.689-.123 1.398-.193 2.573-.328Zm-3.196-5.89a2.141 2.141 0 0 1-.17-.38c-.522-.301-1.328-.49-1.485-.905-.2-.606.107-1.382.221-2.381-.541.154-1.292.33-2.023.559.234 1.129-.237 2.625.92 3.242.656.367 1.666-.061 2.537-.135Zm-14.348-45.733c.13.782.276 1.529.373 2.295.15 1.341-.268 2.906 1.718 3.554-.2-1.619-.429-3.168-.613-4.525a21.24 21.24 0 0 0-1.478-1.324Zm9.922 30.497c.129-.021.29-.025.419-.046-.245-1.81-.49-3.619-.77-5.446-.161.004-.309-.027-.437-.006-.023.664-.045 1.328-.073 1.905a26.94 26.94 0 0 0-1.3-.054c.052.575.139 1.167.2 1.619.541-.154.926-.216 1.292-.33.006.087.059.156.064.243-.156.091-.312.182-.36.201.287.691.603 1.312.965 1.914Zm5.957 35.156c.128-.021.223-.058.352-.079.033-.49.237-1.106.02-1.467-.726-1.204-1.593-2.352-2.38-3.502-.034-.016-.128.021-.128.021.013.471.209.99.036 1.326-.313.689-.051 2.254.429 2.155 1.183-.258 1.297.77 1.671 1.546Zm23.058 38.193c-.19.581-.528 1.131-.416 1.355.842 1.515 1.78 2.993 2.915 4.78a90.704 90.704 0 0 0-.307-2.262c-.06-.453-.083-1.308-.231-1.339-1.244-.195-1.247-1.505-1.961-2.534Zm-26.552-49c-.597-1.224-1.141-2.381-1.685-3.537-.162.005-.31-.027-.472-.022-.159.807-.541 1.672-.396 2.42.234 1.129 1.146 1.454 2.553 1.139Zm7.835 46.808c-.366-.392-.558-.614-.977-1.075.098.766.187 1.148.23 1.548.398-.097.797-.195 1.054-.236.095.469.17.886.245 1.303l.21-.529c.379.357.739.662 1.185 1.052.21-1.036.383-1.878.548-2.598-.835-.119-1.75-.235-2.618-.37 0 0 .07.33.123.905Zm12.547 7.362c-.204.11-.374.236-.578.346.912 1.846 1.777 3.709 2.722 5.571.092.172.558.108 1.05.183-1.13-2.207-2.162-4.153-3.194-6.1ZM12.06 286.824c-.627.575-.976.951-1.378 1.258-.232.181-.536.241-.787.37.17.379.25.884.505 1.052.521.301 1.174.371 2.182.66a60.877 60.877 0 0 0-.522-3.34Zm35.38 40.253c-.31.479-.74.857-.717 1.205.027.436.3 1.163 1.015.673.374-.237 1.1-.552 1.075-.691-.196-1.025-.661-1.974-1.853-2.607.226.745.368 1.196.48 1.42Zm13.44 31.018c-.356-.009-.727.018-1.132.029.538 1.069.985 1.965 1.478 2.843.737 1.378 1.259 1.679 1.965 1.312-.282-1.617-2.57-1.908-2.31-4.184Zm8.505 22.238c.424-.971-.349-2.156-1.61-2.106.22-1.368.22-1.368-.527-1.401-.492 1.951.655 2.899 2.137 3.507Zm-32.77-94.836c-2.151.072-.474 1.706-1.024 2.488-.09.125.54.859.812 1.289l.426-.168c-.077-1.22-.136-2.389-.214-3.609Zm22.563 59.894c-.142.056-.298.147-.44.203-.654 1.955-.62 1.972 1.916 2.85a642.72 642.72 0 0 0-1.476-3.053Zm-4.583-9.574c1.12 1.019 2.118 1.936 3.117 2.853-.385-1.963-1.49-3.017-3.117-2.853Zm5.643 27.952c.469 1.245.923 2.526 1.425 3.788.835-1.908-.36-2.838-1.425-3.788Zm-88.676-28.531c.513.423.778.765 1.093.88.182.047.503-.258.7-.455.138-.143.182-.459.339-.55.407-.22.867-.371 1.342-.558l-.215-.571c-.982.357-1.93.731-3.26 1.254Zm70.486-.2c.245-1.735-1.074-2.854-1.398-4.365l-.759.299c.416.67.832 1.341 1.186 2.065.349.637.636 1.329.97 2.001Zm3.61-43.242c-.363-.602-.625-1.154-.706-1.152-.46.152-.916.39-1.284.714-.061.054.265.849.38.863.438.007.912-.18 1.61-.425Zm-17.019.296c.115.015.182.048.296.063-.111-1.237-.256-2.491-.367-3.728-.129.021-.243.006-.405.01-.123.615-.232 1.194-.332 1.65.259.762.527 1.401.808 2.005Zm-11.405-21.483c-.517 2.825-.3 3.692.833 4.17-.259-1.268-.532-2.501-.833-4.17Zm27.994 69.551c-.664-1.257-1.163-2.223-1.663-3.188-.142.056-.265.164-.407.22.159 1.219.502 2.275 2.07 2.968Zm2.377 18.694c.24 1.216.493 2.397.777 3.804.921-1.822.221-2.887-.778-3.804Zm-.785-45.295c.558.615 1.016 1.179 1.487 1.708.938-1.56-.563-1.714-1.166-2.519l-.321.811Zm27.742 60.268c.1.556.206 1.199.262 1.565.644-.314 1.147-.571 1.839-.903a66.995 66.995 0 0 1-2.101-.662Z"/><path d="M95.503 294.949c-.23-.538-.426-1.059-.694-1.701.907-.058 2.038-.175 3.208-.187 1.217-.031 2.541-.942 2.639-1.698 1.325-.402 2.539-.731 3.782-1.131a22.925 22.925 0 0 0 2.57-1.013c.96-.498 1.876-1.188 2.869-1.669 1.151-.573 2.433-.869 3.583-1.442.6-.296 1.081-.904 1.929-1.627-.764.002-1.089.01-1.38.035l-.117-.312c.865-.461 1.73-.921 2.861-1.546-.367.623-.541.96-.714 1.298.249.081.523.302.666.246.361-.202.616-.542.971-.831 2.562.127 4.418-2.13 6.859-2.613-.871 1.39-2.411 1.727-3.813 2.429-3.357 1.682-6.654 3.519-9.991 5.253-2.833 1.475-5.599 2.983-8.485 4.39-2.083 1-4.21 1.808-6.332 2.704a9.361 9.361 0 0 0-.411-.585Zm6.319-12.794c-.683.209-1.366.418-2.082.611-.574.137-1.11.377-1.675.391-1.764.011-2.93 1.54-4.63 1.793-.593.084-1.081.812-1.831 1.493a34.464 34.464 0 0 0-.552-1.537l-2.02.052c.842-.51 1.683-1.02 2.634-1.602-.847-.588-1.396-1.324-2.048-.383-.028.07-.382-.147-.583-.247l-1.003-.497c.725-1.326 1.547-1.887 3.04-.81.34.253 1.277-.294 1.86-.553 1.335-.645 2.617-1.357 3.938-1.966.298-.148.741-.054 1.354-.087-.487.727-.858 1.259-1.21 1.844-.306-.237-.58-.456-1.039-.811-.465.57-1.026 1.177-1.5 1.869-.075.089.053.574.187.641.635.314 2.24-.912 2.333-1.751.672.122 1.33.279 2.068.435-.231.18-.477.396-.708.576.039.103.078.207.084.294 1.19-.379 2.366-.723 3.589-1.086-.12.404-.153.893-.206 1.331Zm-9.86.758c.501.248.944.342 1.19.632.807.99 1.212.98 1.855-.344-1.424.769-1.092-.373-1.187-1.347-.657.348-1.22.659-1.859 1.059Zm-1.665 15.356c-1.154.692-2.268 1.487-3.461 2.075-1.477.701-3.012 1.245-4.718 1.916-.072-.625-.12-1.112-.217-1.876-.114-.015-.602.207-.936.041-.487-.284-.797-.816-1.32-1.412.365-.114.602-.207.838-.301.084.295.2.605.304.951.49.075 1.142.145 1.975.263a25.432 25.432 0 0 0-.874-1.023c.914.116 1.813.267 2.736.261.485-.013.92-.302 1.538-.249.652.071.736-.646.346-1.176-.232-.325-.66-.454-1.288-.891.761-.002 1.198.005 1.717.009.103.346.206.691.211.778 1.148.232 2.135.469 3.168.686l-.02-.052Zm-25.049-21.807c1.394-.071 2.121-1.403 3.285-2.011.898-.444 1.567-.408 2.353-.569.059.156.132.277.157.417-.77.422-1.52.897-2.289 1.32.025.139.017.262.042.402.562-.102 1.097-.133 1.606-.304.557-.19 1.055-.535 1.684-.604-.464 1.379-2.702.437-2.448 2.638.89-.32 1.874-.678 2.86-1.037l.097.261c-2.115.983-4.216 1.93-6.522 2.988.095-1.054.188-1.897.252-2.67-.36-.306-.735-.577-1.077-.831Zm26.422-1.702c-1.555.583-3.076 1.182-4.65 1.712-.557.19-1.163.1-1.745.15-.011-.175-.036-.314-.014-.472 1.465-.458 3.216-.52 4.276-1.475 1.045-.92 2.072-.877 3.17-1.22 1.242-.399 2.593-.872 3.622-2.054.755-.894 2.343-.953 3.694-1.425-.28-.308-.473-.531-.772-.891.319-.095.66-.349.794-.283 1.091.795 1.882.215 2.774-.316.456-.239 1.116-.081 1.753.235-1.711.674-3.481 1.193-5.114 2.075-1.021.551-2.511.87-2.517 2.813-.654-.578-1.239-1.334-1.927-.406a153.288 153.288 0 0 1-3.344 1.557Zm-49.167 92.236c-.17 1.139-.042 2.13.964 2.924.614.473 1.062 1.159 1.62 1.773-.27.077-.541.153-.845.213.374.27.823.45 1.087.793.106.136-.106.875-.22.86-.594.085-1.233-.021-1.832-.023l.62-.958c-1.144-1.157-2.66-2.077-2.356-4.161.008-.123-.098-.259-.156-.415-.96-1.825-1.857-3.703-2.877-5.474-.44-.809-1.085-1.508-1.648-2.208-.602-.805-1.042-1.614-.348-2.661.703 1.36 1.338 2.688 2.082 3.942 1.04 1.823 2.141 3.591 3.242 5.36.073.12.458.058.7.052l-.033-.017Zm21.354-62.724c-.258.042-.502.048-.76.09.292-1.043.292-1.043 3.794-.747-.17-.381-.302-.659-.44-1.024.13-.021.191-.075.273-.077.512.127 1.017.377 1.557.434.426.041 1.124.006 1.208-.207.149-.477-.005-1.105-.039-1.631.342-.254.788-.669 1.272-.98.41-.221.877-.286 1.469-.459-.317.903-.508 1.487-.712 2.107.134.066.235.116.383.148-1.765 1.414-9.664 4.407-10.816 3.963 1.076-.484 2.01-.912 2.976-1.323-.053-.068-.092-.173-.165-.294Zm10.323-28.526c.817-.441 1.681-.901 2.75-1.472-.593-.124-.923-.204-1.267-.247-.04-.104-.03-.227-.07-.331a178.642 178.642 0 0 1 3.44-1.594c.109-.073.296.062.445.093.782.05 1.599.117 2.41.096.405-.01.82-.143 1.205-.206.059.156.103.348.162.504a1072.746 1072.746 0 0 0-8.85 3.606 2.422 2.422 0 0 0-.224-.449ZM52.438 401.96c-2.9-4.383-6.053-8.638-8.132-13.582.156-.091.326-.217.482-.308 2.67 4.563 5.306 9.11 7.976 13.673l-.326.217ZM6.832 296.624c.3.361.58.67.88 1.031-.47.276-1.195.681-1.994 1.175-.078-.208-.162-.505-.286-.906-1.943.946-2.712 3.706-5.23 3.56.235-.392.457-.749.659-1.159 1.139-2.067 3.315-2.685 5.099-3.837.17-.127.594.125.891.188l-.02-.052Zm68.431 6.127c.884.186 1.735.355 2.62.541.027-.07.035-.192.063-.262-.648-.279-1.343-.539-1.99-.818.022-.156.077-.297.1-.454.878.099 1.71.217 2.93.359-.776-.761-1.306-1.234-1.79-1.725l.183-.161 4.17 2.064c.017.26 0 .503.017.763-1.315.399-2.552 1.004-3.904 1.09-.773.038-1.629-.722-2.463-1.135.056-.14.07-.175.064-.262Zm3.491 68.14c1.293-.242 1.507.83 1.905 1.74l-.167.422c-.682-.296-1.363-.591-2.017-.956-.166-.083-.16-.5-.225-.742-.083-.293-.139-.656-.358-.807a3.092 3.092 0 0 1-1.118-2.317c.011-.834-1.11-1.934-1.916-1.914a.668.668 0 0 1-.376-.059c-.066-.034-.166-.083-.286-.184.064-.262.128-.525.225-.77.112-.281.312-.686.487-.725.242-.006.567.281.745.537 1.382 1.649 1.721 3.917 3.1 5.775Zm-24.191 20.24c.1-.455.22-.858.334-1.348.034.016.281.097.329.078-.445-.893-.93-1.889-1.428-2.85.17-.127.34-.253.53-.327 1.766 1.59 2.732 3.791 3.872 6.458-.96-.601-1.62-1.054-2.287-1.385-.267-.132-.598-.002-.907-.029a10.58 10.58 0 0 1-.443-.597Zm12.951-109.593c.593-.383.872-.582 1.185-.765a2.763 2.763 0 0 0-.19-.433c-.835.389-1.637.795-2.487 1.219-.059-.156-.118-.312-.21-.485 2.457-1.445 5.085-2.51 8.014-3.425.07.331.173.678.229 1.044.025.139.05.279.08.506-.653-.071-1.148 1.079-1.964-.003-.106-.137-1.051.325-1.535.635-.858.547-1.63 1.179-2.42 1.759-.095.038-.23-.029-.702-.052Zm17.678 99.422c-.404-.496-.809-.993-1.46-1.78.079.715.081 1.012.132 1.29-.196-.519-1.276-.929-.31-1.547.061-.054.02-.455-.053-.576-.435-.722-.918-1.426-1.353-2.149.491-.432.273-1.3-.483-1.718-.235-.116-.371-.479-.53-.685 1.329-.523.111-1.296.1-1.977.45.181.45.181 1.463 2.583.477 1.124 1.077 2.14 1.616 3.209.471 1.036.895 2.091 1.32 3.146-.19.075-.333.131-.442.204Zm-8.861-103.121c.216-.444.347-.675.431-.887-.495.135-.942.252-1.39.368l-.156-.416c2.705-1.156 5.376-2.328 8.095-3.519.023.35.079.717.104.856-.792.581-1.53 1.231-2.347 1.672a2.17 2.17 0 0 1-1.402.194c-.842-.207-.694-.175-1.334.735-.325.516-1.178.643-2 .997Zm19.149 17.64c.125.188.284.394.41.582-1.465.666-2.928 1.331-4.445 1.928-.332.131-.775.038-1.132.029l.02.052c.155-.597.345-1.177.557-1.916a24.594 24.594 0 0 1-.967-.69c1.13-1.337 1.6.709 2.484.599l.745-1.275c.025.139.036.313.06.452.72.104 1.487.189 2.268.239Zm-46.64 91c.038-1.406-.087-1.594-1.054-1.569-.336-1.466-1.394-2.618-2.7-2.845.247-.422.709-.781.7-1.162-.014-.468-.383-.944-.625-1.441.809.777 1.631 1.519 2.406 2.28.775.76.253 2.179 1.526 2.892.852.463 1.264 1.84 2.02 3.052-.954-.513-1.593-.913-2.246-1.277l-.027.07Zm4.639-78.251c.897-.145 1.652-.234 2.387-.374-.23-.326-.429-.634-.944-1.353 1.889.178 3.368.28 4.995.412-1.095 1.353-4.53 2.556-6.438 1.315Zm20.683-8.128c.173-.846.18-1.775.403-1.833.881-.198 1.402.314 1.678 1.341.258.975-.195 1.004-.82 1.16-.847.215-1.642.498-2.613.821.106-.371.218-.654.353-1.096-.154-.118-.428-.339-.683-.508.008-.123.036-.194.045-.317.593.125 1.24.319 1.637.432Zm-35.374-46.496c-.158 2.653-.279 5.11-.414 7.603-.082.002-.13.021-.226.058-.192-1.972-.384-3.944-.528-5.936-.017-.264.062-.566.012-.847-.269-1.371.411-1.247 1.156-.878Zm56.892 23.841c-.485.012-1.116.29-1.423.054-.426-.338-.58-.963 0-1.519.185-.162-.002-.803-.019-1.571 1.116.722 1.992 1.241 2.82 1.779-.443.412-.9.861-1.378 1.257Zm-20.282 28.184c-1.262-.33-2.51-.696-3.805-1.043-.037-.31-.145-.739-.12-1.103.036-.191.366-.32.55-.481.34.545.72.691 1.209.263.06-.053.294.062.347.13.335.959 2.24.27 1.82 2.234Zm18.318-13.465c.168-.424.238-1.108.51-1.185.76-.299 1.268-1.484 2.405-.709-.232.181-.403.308-.573.435.02.052.025.139.045.191.941-.252 1.916-.486 2.858-.738l.117.312-4.934 2.033c-.154-.119-.307-.237-.428-.339Z"/><path d="M42.443 366.979c.173-.335.298-.652.596-1.305.953 1.736 1.76 3.232 2.616 4.709.382.652.853 1.18 1.362 1.812a6.19 6.19 0 0 1-.356.497 946.505 946.505 0 0 1-4.238-5.765l.02.052Zm9.743-67.652 1.095.288c.006.088.025.14.065.245-.688.211-1.328.403-2.064.633-.43-.851-1.098-2.117.188-2.414.79-.161 1.77-1.927 2.732-.387-.786.46-1.496.83-2.187 1.252.087.086.112.226.171.383Zm6.034-1c-1.02.132-2.061.212-3.082.344-.02-.053-.087-.086-.106-.139l2.176-1.218a1.303 1.303 0 0 0-.166-.295c-.191.076-.382.151-.588.262-.039-.105-.112-.226-.151-.331.534-.33 1.102-.644 1.622-.94-.202-.1-.554-.232-1.142-.481.54-.243.937-.429 1.381-.634.172.894.337 1.699.503 2.505-.146.268-.287.624-.475.998-.02-.052.028-.071.028-.071Zm-24.764 61.025a61.232 61.232 0 0 0-1.58-1.455c.551-1.493-1.213-2.282-1.572-3.595 2.02.748 3.553 3.231 3.152 5.05Zm25.215 40.488c-.467-.443-.933-.886-1.367-1.312-.047.019-.075.089-.122.108.704 1.365 1.422 2.694 2.126 4.058-.062.054-.137.144-.232.181-.883-1.115-1.895-2.209-2.621-3.415-.185-.346.299-1.163.595-2.116.844 1.011 1.356 1.646 1.881 2.245-.109.072-.184.162-.26.251Zm6.595-123.279c-.482.608-.944 1.268-1.411 1.841.081-.002.372-.027.988-.06-.798.493-1.33.822-1.814 1.133-.478-.619-.923-1.221-1.42-1.892 1.295-.331 2.462-.641 3.628-.951.048-.019.029-.071.029-.071Zm-17.803 25.367c-.115-.522-.21-.992-.324-1.515.377-.447.788-.878 1.166-1.325l-.048.019c.839.416 1.16 1.125 1.073 2.056 0 0 .297.062.448.391-.786.16-1.544.249-2.315.374Zm3.796 79.761c-.382-.653-.705-1.151-.948-1.651-.577-1.171-1.14-2.378-1.867-3.876 2.166 1.706 3.334 4.013 2.815 5.527Zm10.456-86.651c.713.017 1.136.058 1.768.077-2.028 1.184-2.337 1.157-4.019-.855.975-.443 1.808-.83 2.64-1.217.098.259.243.499.34.758l-.309.478c-.117.194-.186.37-.42.759Zm-22.511 74.799c-1-1.715-1.952-3.449-3.082-5.439.927.585 1.581.952 2.055 1.27.465 1.45.87 2.745 1.277 4.041-.094.037-.19.074-.25.128Zm15.344 21.377c.158.204.297.357.456.561.37.981-.345.669-.743.766l.02.052a58.85 58.85 0 0 1-1.952-1.721c.02.051-.13-.275-.153-.622-.016-.26.075-.592.245-.718.156-.091.531-.031.67.122.417.458.726.988 1.129 1.482-.023.156.2.099.328.078Zm-.371 1.404c.241.495.435 1.009.657 1.453-.668-.121-1.304-.226-1.925-.365-.055.139-.158.297-.213.437l-1.673-2.705c1.206.47 2.213.842 3.173 1.232l-.02-.052Zm41.482-115.24c.492-.433.937-.847 1.429-1.28.948-.164 1.916-.277 2.864-.441l-.02-.052c-.554.487-1.141.957-1.88 1.607-.053-.069.188.135.462.356-.123.108-.246.216-.336.341-.87-.135-1.678-.325-2.52-.531ZM.757 304.67c.696-.844 1.302-1.563 1.965-2.424l1.179.585C3.794 304.733 1.975 304.34.908 305c-.059-.156-.19-.434-.151-.33Zm34.524 34.703c.918-.093 2.5 2.589 2.867 5.809-.984-1.965-1.935-3.913-2.867-5.809Zm49.203-61.685c-.328.218-.65.525-1.017.64-1.039.289-2.635-.249-2.367 1.92.02.052-.409.221-.428.169-.3-.361-.647-.703-.77-1.103-.065-.244.193-.795.417-.853 1.34-.438 2.684-.788 4.042-1.174.04.104.098.261.123.401Zm-6.601 10.19c.624-1.475 1.792-2.085 3.252-2.211-.031.283-.043.617-.074.899-.457.24-.949.464-1.406.704a1.22 1.22 0 0 0-.503.558c-.084.213-.034.493-.05.74-.16-.207-.292-.485-.494-.585-.189-.136-.48-.111-.73-.192-.014.035.005.087.005.087ZM40.53 267.531c1.491 1.123 1.758 2.488 1.22 6.09a359.04 359.04 0 0 1-1.22-6.09Zm8.209 118.959c.616 1.06 1.2 2.103 1.816 3.162l-.366.322c-1.064-1.239-2.081-2.496-3.145-3.735.589.124 1.178.247 1.747.319-.033-.016-.052-.068-.052-.068Zm-6.247-11.718c.509.125 1.03.216 1.719.389.236.409.697 1.055 1.202 1.891-.155.09-.536.446-.622.362-.922-.79-2.21-1.259-2.298-2.642Zm18.568-64.171c-1.06.062-2.115.21-3.186.099-.388-.024-.735-.655-1.027-.925.833-.09 1.565-.23 2.262-.179.696.051 1.396.397 2.084.569-.042.105-.078.296-.133.436Zm27.8-39.684c-1.581 1.969-3.275 2.696-4.565 2.098 1.579-.742 3.062-1.446 4.565-2.098ZM54.571 385.643c-1.425.472-1.478.403-2.65-3.5l2.65 3.5Zm19.323-24.187c-.153-1.126-.812-1.579-1.85-1.378.326-.217.673-.591 1.016-.548.356.008.781.345 1.012.669a7.94 7.94 0 0 1 1.052 1.782c.097.258-.17.63-.276.998a35.464 35.464 0 0 0-.954-1.523Zm-26.99-73.662c.361.306.737.578 1.098.885.076-.09.138-.144.214-.234-.104-.349-.222-.662-.365-1.115a32.87 32.87 0 0 1 1.587-.655c.082.507.104.858.146 1.261-.289-.186-.592-.336-.914-.539.073.63.154 1.138.227 1.768-.637-.019-1.24-.021-1.828-.059l-.084-1.315-.081.003Zm.574 90.227c-1.867-.631-1.235-2.629-2.5-3.971 1.916.908 2.097 2.468 2.5 3.971Zm52.129-99.028c-.26-.257-.54-.566-.907-.96 1.28-.594 2.684-1.297 4.107-1.947.039.104.112.225.151.329-.647.315-1.348.561-1.888 1.014-.608.419-1.023 1.061-1.463 1.564Zm-12.395 16.944c-1.39.279-2.652.538-3.914.797.34-1.263 2.062-1.673 3.914-.797ZM62.3 281.941c-.586-.037-1.187-.04-1.773-.077-.04-.104-.126-.189-.165-.293 1.444-.51 2.856-1.036 4.3-1.545.02.052.073.121.106.137-.838.599-1.676 1.198-2.5 1.761l.033.017Zm29.342-7.12c1.125-.503 2.264-1.042 3.39-1.545-.031.282.03.737-.08.81-1.071.572-2.21 1.111-3.445 1.688.04-.405.104-.671.135-.953ZM76.69 298.173c.55.021.793.015 1.15.023-.031-.225-.053-.573-.131-1.285.69 1.184 1.292 1.987 2.411.774.011.174.009.383.02.557-.59.381-1.195.797-1.738 1.159-.526-.387-1-.706-1.713-1.228Z"/><path d="m73.873 361.473.968 1.486c-.017.243-.048.522-.064.765-.51-1.132-2.389-1.223-2.174-3.173.592.419.931.67 1.27.922Zm14.033-67.279c.907-.475 1.822-1.073 3.347.019-1.294.241-2.251.44-3.242.622a1.774 1.774 0 0 0-.105-.641Zm-23.79 53.08c.98.149 1.469.938 1.8 1.819.156.414.156.92.25 1.388-.108.072-.203.11-.312.182-.59-1.135-1.147-2.254-1.738-3.389Zm-1.904-65.292 1.872.927c-.022.157-.078.298-.1.455-.794-.014-1.569.023-2.571.031.393-.689.613-1.043.847-1.432l-.048.019Zm22.372-2.916c.658-.139 1.282-.296 2.307-.55-.45.836-.728 1.334-1.061 1.974a46.055 46.055 0 0 0-1.314-.948c.037-.194.06-.353.068-.476ZM50.365 383.849c-.57-1.296-1.027-2.368-1.519-3.457.11-.072.17-.126.28-.199.614.981 1.228 1.961 1.828 2.977.02.052-.349.376-.59.679Zm49.572-108.267c.383-.36.786-.668 1.387-1.174-.12-.102-.36-.306-.755-.628 1.024.254 1.602.414 2.377.587-1.066.36-1.558 1.808-2.995 1.179-.033-.016-.014.036-.014.036Zm-34.262 31.942c1.138-.151 2.162-1.324 3.616-.058-1.299.155-2.484.325-3.655.459a5.11 5.11 0 0 0 .039-.401Zm36.302-34.169-.881-2.344c.109-.073.375-.238.736-.44-.398 1.413.546 1.161 1.4 1.034-.524.714-.91 1.285-1.255 1.75Zm-45.39 1.453 3.472-1.368c.039.104.112.225.137.364-1.136.537-2.238 1.091-3.374 1.629l-.235-.625Zm46.109 13.392c.1-.458.145-.775.196-1.004 1.024-.254 2.048-.508 3.12-.781.053.069.092.173.112.225-1.136.538-2.225 1.056-3.428 1.56Zm-24.423-16.547c-1.055.535-2 .997-2.947 1.459.026-1.385.06-1.368 2.947-1.459Zm-29.388 99.011.208.988c-.061.053-.156.091-.231.18-.699-1.062-1.398-2.124-2.083-3.222.122-.107.231-.18.354-.288.303.446.573.874.89 1.284.285.393.616.768.914 1.126-.033-.016-.052-.068-.052-.068Zm-23.852-85.848c-.896.233-1.508.056-1.472-1.154.04-.404.18-.757.266-1.18.35.131.686.298 1.069.445-.35.377-.658.648-.932.935.434.427.727.7 1.069.954Z"/></g></g><defs><radialGradient id="c" cx="0" cy="0" r="1" gradientUnits="userSpaceOnUse" gradientTransform="matrix(0 586.667 -643.114 0 472.689 190.667)"><stop stop-color="#00FFC2"/><stop offset="1" stop-color="#00FFC2" stop-opacity="0"/></radialGradient><clipPath id="a"><path fill="#fff" d="M0 0h473v427H0z"/></clipPath><filter id="b" x="-370.944" y="-595.955" width="1686.23" height="1573.33" filterUnits="userSpaceOnUse" color-interpolation-filters="sRGB"><feFlood flood-opacity="0" result="BackgroundImageFix"/><feBlend in="SourceGraphic" in2="BackgroundImageFix" result="shape"/><feGaussianBlur stdDeviation="100" result="effect1_foregroundBlur_158_7558"/></filter></defs></svg>