<svg width="253" height="67" viewBox="0 0 253 67" fill="none" xmlns="http://www.w3.org/2000/svg">
<g clip-path="url(#clip0_140_10666)">
<mask id="mask0_140_10666" style="mask-type:luminance" maskUnits="userSpaceOnUse" x="0" y="0" width="73" height="67">
<path d="M72.6127 0.0786133H0.0473633V66.9212H72.6127V0.0786133Z" fill="white"/>
</mask>
<g mask="url(#mask0_140_10666)">
<path fill-rule="evenodd" clip-rule="evenodd" d="M28.1999 50.3418L52.0376 26.5744C54.0372 24.5807 57.1419 24.5807 59.0362 26.5744L67.14 34.6543C69.1396 36.648 69.1396 39.7435 67.14 41.6324L43.3024 65.5047C41.3027 67.4984 38.198 67.4984 36.3037 65.5047L28.1999 57.4248C26.2003 55.4311 26.2003 52.3356 28.1999 50.3418Z" fill="#5426FF"/>
<path fill-rule="evenodd" clip-rule="evenodd" d="M28.1999 50.3418L52.0376 26.5744C54.0372 24.5807 57.1419 24.5807 59.0362 26.5744L67.14 34.6543C69.1396 36.648 69.1396 39.7435 67.14 41.6324L43.3024 65.5047C41.3027 67.4984 38.198 67.4984 36.3037 65.5047L28.1999 57.4248C26.2003 55.4311 26.2003 52.3356 28.1999 50.3418Z" fill="#5426FF"/>
<path opacity="0.5" fill-rule="evenodd" clip-rule="evenodd" d="M55.9842 42.8391C57.9838 40.8454 57.9838 37.7499 55.9842 35.8611L49.3538 29.2502L28.1999 50.3419C26.2003 52.3356 26.2003 55.4311 28.1999 57.3199L34.8303 63.9307L55.9842 42.8391Z" fill="#4911D4"/>
<path fill-rule="evenodd" clip-rule="evenodd" d="M3.94137 24.3708L26.7792 1.4953C28.7788 -0.498434 31.8835 -0.498434 33.7779 1.4953L41.8816 9.57518C43.8813 11.5689 43.8813 14.6644 41.8816 16.5532L18.9912 39.3763C16.9916 41.37 13.8869 41.37 11.9925 39.3763L3.94137 31.3489C1.94174 29.4601 1.94174 26.2596 3.94137 24.3708Z" fill="#5426FF"/>
<path opacity="0.5" fill-rule="evenodd" clip-rule="evenodd" d="M41.9342 16.6582C43.9339 14.6645 43.9339 11.5689 41.9342 9.68013L35.8301 3.59399L14.9919 24.3708C12.9923 26.3645 12.9923 29.4601 14.9919 31.3489L21.096 37.3826L41.9342 16.6582Z" fill="#4911D4"/>
<path fill-rule="evenodd" clip-rule="evenodd" d="M70.5078 20.5933L64.1932 21.6951C63.0882 21.9049 62.0884 21.5901 61.299 20.8031L48.091 7.63398C45.1968 4.74831 40.3556 4.74831 37.4614 7.63398L0.257835 44.6755C-0.321004 45.2526 0.152591 45.9871 0.941917 45.8822L7.83536 44.7804C8.83518 44.6755 9.83499 44.8853 10.5191 45.6724L23.5693 58.6841C26.8844 61.9895 31.1994 61.7796 34.5146 58.3693L71.1919 21.8C71.7181 21.2753 71.1919 20.3834 70.5078 20.5933ZM49.1434 27.8861L32.1992 44.7804C30.5153 46.4594 27.779 46.4594 26.0951 44.7804L22.4642 41.1602C21.8854 40.5831 21.7801 39.6387 22.4642 38.9566L39.7241 21.7475C41.1449 20.3309 43.6181 20.3309 45.0389 21.7475L49.1434 25.8399C49.6696 26.3646 49.6696 27.3615 49.1434 27.8861Z" fill="#CD40A7"/>
<path fill-rule="evenodd" clip-rule="evenodd" d="M51.6693 41.265L48.8803 38.1694L37.7771 39.1663L32.1466 44.7802C30.4627 46.4592 27.7264 46.4592 26.0425 44.7802L31.7256 50.4466C35.0408 53.7521 39.3558 53.5422 42.6709 50.1318L51.6693 41.265Z" fill="url(#paint0_linear_140_10666)"/>
<path fill-rule="evenodd" clip-rule="evenodd" d="M28.8313 16.1859L17.6755 27.3613C21.6748 30.1421 26.095 33.2376 26.095 33.2376C26.095 33.2376 26.3055 33.8148 26.6739 34.5493L39.724 21.5375C41.1448 20.1209 43.618 20.1209 45.0388 21.5375L39.6188 16.081C36.6194 13.1953 31.8308 13.1953 28.8313 16.1859Z" fill="url(#paint1_linear_140_10666)"/>
</g>
<path d="M122.866 36.7529V28.7255H128.076L135.285 36.7529H138.758L130.286 27.3613L138.758 18.1272H135.285L128.076 26.1546H122.866V13.1953H120.235V36.7529H122.866Z" fill="white"/>
<path d="M249.106 18.1272H236.687V13.1953H233.951V36.7529H249.106C250.106 36.7529 251.158 36.4381 251.842 35.6511C252.632 34.8641 252.947 33.9721 252.947 32.9228V22.1147C252.947 21.1178 252.632 20.0685 251.842 19.3864C251.158 18.4945 250.106 18.1272 249.106 18.1272ZM250.369 32.9228C250.369 33.2376 250.264 33.6049 250.053 33.8147C249.843 34.0246 249.474 34.1295 249.159 34.1295H238.003C237.687 34.1295 237.319 34.0246 237.108 33.8147C236.898 33.6049 236.792 33.2376 236.792 32.9228V22.1147C236.792 21.7999 236.898 21.4326 237.108 21.2227C237.319 21.0129 237.687 20.9079 238.003 20.9079H249.159C249.474 20.9079 249.843 21.0129 250.053 21.2227C250.264 21.4326 250.369 21.7999 250.369 22.1147V32.9228Z" fill="white"/>
<path d="M143.862 13.1953H141.284V14.6644H143.862V13.1953Z" fill="white"/>
<path d="M97.7658 36.7528H113.237C114.236 36.7528 115.289 36.438 115.973 35.651C116.762 34.864 117.078 33.9721 117.078 32.9228V27.7286C117.078 26.7317 116.762 25.6824 115.973 25.0003C115.184 24.2133 114.289 23.8985 113.237 23.8985H97.7658C97.4501 23.8985 97.0817 23.7936 96.8713 23.5837C96.6608 23.3738 96.5555 23.0066 96.5555 22.6918V17.4976C96.5555 17.1828 96.6608 16.8155 96.8713 16.6056C97.0817 16.3958 97.4501 16.2908 97.7658 16.2908H113.237C113.552 16.2908 113.921 16.3958 114.131 16.6056C114.342 16.8155 114.447 17.1828 114.447 17.4976V18.3895H117.025V17.4976C117.025 16.5007 116.71 15.4513 115.92 14.7693C115.131 13.9823 114.236 13.6675 113.184 13.6675H97.7132C96.6082 13.6675 95.661 13.9823 94.9769 14.7693C94.1876 15.5563 93.8718 16.4482 93.8718 17.4976V22.6393C93.8718 23.7411 94.1876 24.6855 94.9769 25.3676C95.7662 26.1546 96.6608 26.4694 97.7132 26.4694H113.184C113.5 26.4694 113.868 26.5743 114.079 26.7842C114.289 26.994 114.394 27.3613 114.394 27.6761V32.8703C114.394 33.1851 114.289 33.5524 114.079 33.7622C113.868 33.9721 113.5 34.077 113.184 34.077H97.7132C97.3975 34.077 97.0291 33.9721 96.8186 33.7622C96.6082 33.5524 96.5029 33.1851 96.5029 32.8703V31.9784H93.9245V32.8703C93.9245 33.9721 94.2402 34.9165 95.0295 35.5986C95.8715 36.3856 96.766 36.7528 97.7658 36.7528Z" fill="white"/>
<path d="M143.862 18.1272H141.284V36.7004H143.862V18.1272Z" fill="white"/>
<path d="M228.215 32.9228C228.215 33.2376 228.11 33.6049 227.899 33.8147C227.689 34.0246 227.32 34.1296 227.005 34.1296H215.796C215.481 34.1296 215.112 34.0246 214.902 33.8147C214.691 33.6049 214.586 33.2376 214.586 32.9228V18.1272H212.008V32.8703C212.008 33.8672 212.323 34.9165 213.113 35.5986C213.902 36.3856 214.797 36.7004 215.849 36.7004H227.005C228.11 36.7004 229.057 36.3856 229.846 35.5986C230.636 34.8116 230.951 33.9197 230.951 32.8703V18.1272H228.373V32.8703H228.215V32.9228Z" fill="white"/>
<path d="M203.167 35.5986C203.957 36.3856 204.851 36.7004 205.904 36.7004H209.061V34.1295H205.904C205.588 34.1295 205.219 34.0246 205.009 33.8147C204.798 33.6049 204.693 33.2376 204.693 32.9228V13.1953H202.115V32.9228C202.01 33.9197 202.378 34.8116 203.167 35.5986Z" fill="white"/>
<path d="M176.962 14.7693C176.172 15.5563 175.856 16.4483 175.856 17.4976V32.8179C175.856 33.9197 176.172 34.8641 176.962 35.5461C177.751 36.3331 178.645 36.6479 179.698 36.6479H198.905V34.0771H179.698C179.382 34.0771 179.014 33.9721 178.803 33.7623C178.593 33.5524 178.488 33.1851 178.488 32.8703V17.4976C178.488 17.1828 178.593 16.8155 178.803 16.6057C179.014 16.3958 179.382 16.2909 179.698 16.2909H198.905V13.72H179.698C178.645 13.6675 177.751 14.0873 176.962 14.7693Z" fill="white"/>
<path d="M162.596 18.1272H147.441V36.7004H150.019V21.9573C150.019 21.6425 150.124 21.2752 150.335 21.0653C150.545 20.8555 150.914 20.7505 151.229 20.7505H162.385C162.701 20.7505 163.069 20.8555 163.28 21.0653C163.49 21.2752 163.596 21.6425 163.596 21.9573V36.7004H166.174V21.9573C166.174 20.9604 165.858 19.9111 165.069 19.229C164.437 18.5994 163.648 18.1272 162.596 18.1272Z" fill="white"/>
<path d="M172.173 34.1296H169.594V36.7005H172.173V34.1296Z" fill="white"/>
<path d="M166.49 47.4035C166.385 47.4035 166.279 47.5085 166.279 47.6134V52.4403C166.279 52.5453 166.385 52.6502 166.49 52.6502H172.646V53.8045H166.49C165.753 53.8045 165.122 53.1749 165.122 52.4403V47.6134C165.122 46.8789 165.753 46.2493 166.49 46.2493H172.646V47.4035H166.49Z" fill="white"/>
<path d="M178.488 47.7185C179.224 47.7185 179.856 48.3481 179.856 49.0826V52.4405C179.856 53.175 179.224 53.8046 178.488 53.8046H175.015C174.278 53.8046 173.646 53.175 173.646 52.4405V49.0826C173.646 48.3481 174.278 47.7185 175.015 47.7185H178.488ZM175.015 48.8728C174.909 48.8728 174.804 48.9777 174.804 49.0826V52.4405C174.804 52.5454 174.909 52.6504 175.015 52.6504H178.488C178.593 52.6504 178.698 52.5454 178.698 52.4405V49.0826C178.698 48.9777 178.593 48.8728 178.488 48.8728H175.015Z" fill="white"/>
<path d="M186.96 47.7185V52.4405C186.96 53.175 186.328 53.8046 185.591 53.8046H182.118C181.382 53.8046 180.75 53.175 180.75 52.4405V47.7185H181.908V52.4405C181.908 52.5454 182.013 52.6504 182.118 52.6504H185.591C185.697 52.6504 185.802 52.5454 185.802 52.4405V47.7185H186.96Z" fill="white"/>
<path d="M194.274 49.0826V53.8046H193.116V49.0826C193.116 48.9776 193.011 48.8727 192.906 48.8727H189.433C189.328 48.8727 189.222 48.9776 189.222 49.0826V53.8046H188.065V47.7709H192.906C193.643 47.7184 194.274 48.348 194.274 49.0826Z" fill="white"/>
<path d="M196.484 48.8726V52.4403C196.484 52.5453 196.589 52.6502 196.695 52.6502H198.957V53.8045H196.695C195.958 53.8045 195.326 53.1749 195.326 52.4403V45.7246H196.484V47.7183H198.957V48.8726H196.484Z" fill="white"/>
<path d="M205.798 49.0826V51.3387H200.747V52.4405C200.747 52.5454 200.852 52.6504 200.957 52.6504H205.798V53.8046H200.957C200.22 53.8046 199.589 53.175 199.589 52.4405V49.0826C199.589 48.3481 200.22 47.7185 200.957 47.7185H204.43C205.219 47.7185 205.798 48.3481 205.798 49.0826ZM204.693 50.1844V49.0826C204.693 48.9777 204.588 48.8728 204.483 48.8728H201.01C200.904 48.8728 200.799 48.9777 200.799 49.0826V50.1844H204.693Z" fill="white"/>
<path d="M211.429 47.7185V48.8728H208.008C207.903 48.8728 207.798 48.9777 207.798 49.0826V53.8046H206.64V49.0826C206.64 48.3481 207.272 47.7185 208.008 47.7185H211.429Z" fill="white"/>
<path d="M216.323 50.1318H212.113V51.2861H216.323V50.1318Z" fill="white"/>
<path d="M225.005 48.0856H223.848V47.6659C223.848 47.5609 223.742 47.456 223.637 47.456H218.796C218.691 47.456 218.585 47.5609 218.585 47.6659V49.2923C218.585 49.3973 218.691 49.5022 218.796 49.5022H223.637C224.374 49.5022 225.005 50.1318 225.005 50.8663V52.4928C225.005 53.2273 224.374 53.8569 223.637 53.8569H218.796C218.059 53.8569 217.428 53.2273 217.428 52.4928V52.0206H218.585V52.4403C218.585 52.5453 218.691 52.6502 218.796 52.6502H223.637C223.742 52.6502 223.848 52.5453 223.848 52.4403V50.8139C223.848 50.7089 223.742 50.604 223.637 50.604H218.796C218.059 50.604 217.428 49.9744 217.428 49.2399V47.6134C217.428 46.8789 218.059 46.2493 218.796 46.2493H223.637C224.374 46.2493 225.005 46.8789 225.005 47.6134V48.0856Z" fill="white"/>
<path d="M227.215 48.8726V52.4403C227.215 52.5453 227.321 52.6502 227.426 52.6502H229.689V53.8045H227.426C226.689 53.8045 226.058 53.1749 226.058 52.4403V45.7246H227.215V47.7183H229.689V48.8726H227.215Z" fill="white"/>
<path d="M235.108 47.7185V48.8728H231.688C231.583 48.8728 231.478 48.9777 231.478 49.0826V53.8046H230.32V49.0826C230.32 48.3481 230.951 47.7185 231.688 47.7185H235.108Z" fill="white"/>
<path d="M236.845 45.7771V46.9314H235.688V45.7771H236.845ZM235.74 47.7184H236.898V53.752H235.74V47.7184Z" fill="white"/>
<path d="M244.054 47.7184V47.8758L241.423 50.7614L244.054 53.6471V53.8045H242.686L240.423 51.3386H239.055V53.8045H237.95V45.7771H239.055V50.1843H240.423L242.686 47.7184H244.054Z" fill="white"/>
<path d="M250.579 49.0826V51.3387H245.528V52.4405C245.528 52.5454 245.633 52.6504 245.738 52.6504H250.579V53.8046H245.791C245.054 53.8046 244.423 53.175 244.423 52.4405V49.0826C244.423 48.3481 245.054 47.7185 245.791 47.7185H249.264C250.001 47.7185 250.579 48.3481 250.579 49.0826ZM249.474 50.1844V49.0826C249.474 48.9777 249.369 48.8728 249.264 48.8728H245.791C245.686 48.8728 245.58 48.9777 245.58 49.0826V50.1844H249.474Z" fill="white"/>
<path d="M107.396 47.7185V48.8728H103.975C103.87 48.8728 103.765 48.9777 103.765 49.0826V53.8046H102.607V49.0826C102.607 48.3481 103.238 47.7185 103.975 47.7185H107.396Z" fill="white"/>
<path d="M109.132 45.7771V46.9314H107.974V45.7771H109.132ZM107.974 47.7184H109.132V53.752H107.974V47.7184Z" fill="white"/>
<path d="M117.657 47.7185L114.342 53.8046H113.184L109.816 47.7185H111.132L113.763 52.5454L116.394 47.7185H117.657Z" fill="white"/>
<path d="M123.972 49.0826V51.3387H118.92V52.4405C118.92 52.5454 119.025 52.6504 119.13 52.6504H123.972V53.8046H119.13C118.394 53.8046 117.762 53.175 117.762 52.4405V49.0826C117.762 48.3481 118.394 47.7185 119.13 47.7185H122.603C123.34 47.7185 123.972 48.3481 123.972 49.0826ZM122.814 50.1844V49.0826C122.814 48.9777 122.709 48.8728 122.603 48.8728H119.13C119.025 48.8728 118.92 48.9777 118.92 49.0826V50.1844H122.814Z" fill="white"/>
<path d="M126.234 52.6504H125.076V53.8047H126.234V52.6504Z" fill="white"/>
<path d="M253 52.6504H251.842V53.8047H253V52.6504Z" fill="white"/>
<path d="M130.233 46.2493H131.338V52.6502H137.758V53.8045H130.233V46.2493Z" fill="white"/>
<path d="M143.126 47.7185C143.863 47.7185 144.494 48.3481 144.494 49.0826V52.4405C144.494 53.175 143.863 53.8046 143.126 53.8046H139.653C138.916 53.8046 138.285 53.175 138.285 52.4405V49.0826C138.285 48.3481 138.916 47.7185 139.653 47.7185H143.126ZM139.653 48.8728C139.548 48.8728 139.442 48.9777 139.442 49.0826V52.4405C139.442 52.5454 139.548 52.6504 139.653 52.6504H143.126C143.231 52.6504 143.336 52.5454 143.336 52.4405V49.0826C143.336 48.9777 143.231 48.8728 143.126 48.8728H139.653Z" fill="white"/>
<path d="M152.703 47.7185L149.388 53.8046H148.23L144.862 47.7185H146.178L148.809 52.5454L151.44 47.7185H152.703Z" fill="white"/>
<path d="M159.017 49.0826V51.3387H153.966V52.4405C153.966 52.5454 154.071 52.6504 154.176 52.6504H159.017V53.8046H154.176C153.44 53.8046 152.808 53.175 152.808 52.4405V49.0826C152.808 48.3481 153.44 47.7185 154.176 47.7185H157.649C158.386 47.7185 159.017 48.3481 159.017 49.0826ZM157.86 50.1844V49.0826C157.86 48.9777 157.755 48.8728 157.649 48.8728H154.176C154.071 48.8728 153.966 48.9777 153.966 49.0826V50.1844H157.86Z" fill="white"/>
<path d="M161.228 52.6504H160.07V53.8047H161.228V52.6504Z" fill="white"/>
<path d="M99.0814 47.456C99.7654 47.456 100.344 48.0332 100.344 48.7152V51.391C100.344 52.0731 99.7654 52.6502 99.0814 52.6502H95.1347V47.456H99.0814ZM99.0814 46.3018H93.9771V53.8045H99.0814C100.45 53.8045 101.502 52.7027 101.502 51.391V48.7152C101.502 47.3511 100.397 46.3018 99.0814 46.3018Z" fill="white"/>
</g>
<defs>
<linearGradient id="paint0_linear_140_10666" x1="12.1714" y1="59.1981" x2="42.0548" y2="43.6904" gradientUnits="userSpaceOnUse">
<stop stop-color="#6311DD"/>
<stop offset="1" stop-color="#6311DD" stop-opacity="0"/>
</linearGradient>
<linearGradient id="paint1_linear_140_10666" x1="56.1315" y1="-0.692612" x2="32.1346" y2="23.8014" gradientUnits="userSpaceOnUse">
<stop stop-color="#6311DD"/>
<stop offset="1" stop-color="#6311DD" stop-opacity="0"/>
</linearGradient>
<clipPath id="clip0_140_10666">
<rect width="253" height="67" fill="white"/>
</clipPath>
</defs>
</svg>
