<svg width="473" height="427" viewBox="0 0 473 427" fill="none" xmlns="http://www.w3.org/2000/svg">
<g clip-path="url(#clip0_158_7558)">
<rect width="473" height="427" fill="#270773"/>
<g opacity="0.16" filter="url(#filter0_f_158_7558)">
<ellipse cx="472.17" cy="190.712" rx="643.114" ry="586.667" fill="url(#paint0_radial_158_7558)"/>
</g>
<g opacity="0.1">
<path d="M46.4848 290.011C47.5756 291.101 45.9935 290.949 45.9515 291.561C46.091 291.715 46.2835 291.937 46.4955 292.211C46.8194 291.19 47.4891 291.016 48.3345 291.308C48.9651 291.537 49.6963 290.296 50.3267 291.537C50.3993 291.657 51.2727 291.373 51.722 291.047C52.2075 291.034 52.7265 291.039 53.212 291.026C53.1646 290.538 53.1173 290.051 53.0337 289.25C53.3463 289.067 54.0188 288.683 54.6439 288.318C54.6244 288.266 54.5853 288.162 54.5658 288.11C53.7008 288.272 52.8358 288.434 51.6666 288.656C52.5875 287.847 53.2573 287.166 54.0192 286.657C54.2229 286.547 54.7753 287.075 55.4644 287.459C55.417 287.477 55.6821 287.313 55.9751 287.079C55.8969 287.378 55.8662 287.658 55.774 287.992C56.0837 288.019 56.3935 288.046 56.7171 288.038C56.6975 288.492 56.7254 288.928 56.7253 289.434C57.1857 289.283 57.6461 289.131 58.3437 288.887C58.0898 289.225 57.9725 289.42 57.7186 289.758C58.8012 289.451 60.1935 290.184 60.1743 288.106C60.1772 287.39 60.7827 287.479 61.3435 287.884C61.8708 288.272 62.4679 288.484 63.037 288.766C63.0789 288.66 63.1543 288.571 63.1961 288.465C63.012 288.121 62.7805 287.795 62.4179 287.193C63.8661 286.772 65.2139 286.301 66.5533 285.952C66.9998 285.836 67.4964 285.998 67.9485 285.969C68.1103 285.964 68.3949 285.852 68.4228 285.782C68.6519 284.292 69.5811 284.373 70.6358 284.642C70.8171 284.69 71.0376 284.335 71.2888 284.207C72.1706 283.8 73.0524 283.393 73.9342 282.986C74.6123 282.69 75.2904 282.393 75.988 282.148C76.2726 282.036 76.5907 281.94 76.9284 281.897C76.9758 281.878 77.132 282.293 77.118 282.329C76.8529 282.492 76.5543 282.64 76.2558 282.787C76.1469 282.86 76.0716 282.949 76.0464 283.316C77.0482 283.011 78.036 282.742 79.0043 282.42C79.0573 282.488 79.0768 282.54 79.1298 282.609C78.4907 283.009 77.8852 283.426 77.2461 283.827C77.2657 283.879 77.2852 283.931 77.2907 284.018C77.6898 283.92 78.0748 283.858 78.4739 283.761C78.5464 283.881 78.5715 284.02 78.644 284.14C76.6572 285.012 74.6843 285.848 72.6026 286.757C72.9847 287.411 73.3194 288.084 73.7741 288.858C73.057 289.051 72.4347 289.206 71.5418 289.439C71.9381 289.045 72.1836 288.829 72.3957 288.596C71.5394 287.116 70.3757 287.932 69.1814 288.015C69.3599 288.272 69.519 288.478 69.943 289.026C69.0417 288.874 68.3833 288.717 67.4485 288.548C67.736 288.227 67.9816 288.011 68.3584 287.565C66.4832 288.154 64.7977 288.669 63.1263 289.148C63.2937 289.231 63.5085 289.295 63.7764 289.428C62.6711 290.906 60.933 289.833 59.8754 290.279C59.6911 290.947 59.6407 291.682 59.4175 291.74C57.9163 292.093 56.7747 293.764 54.8887 292.66C54.4004 292.375 53.5605 292.676 52.9048 292.815C52.729 292.855 52.6229 293.224 52.4917 293.454C52.5977 293.591 52.6702 293.712 52.7902 293.813C52.2461 293.67 51.702 293.527 51.1579 293.384C51.1356 293.542 51.0658 293.718 51.0434 293.876C51.9223 294.185 52.7677 294.478 53.7945 294.818C53.6131 295.277 53.4176 295.771 53.3618 295.912C52.6308 295.634 51.9696 295.179 51.6236 295.345C50.7892 295.733 50.072 296.433 49.3157 297.028C48.7296 297.497 48.1436 297.966 47.5436 298.471C47.4711 298.35 47.3511 298.249 47.2786 298.128C47.5073 298.664 47.736 299.199 47.9647 299.735L48.0121 299.716C46.0173 298.684 45.7187 298.832 45.6932 300.718C46.0894 300.83 46.4522 300.926 46.8623 301.003C46.9766 301.524 47.0714 301.993 47.1857 302.514C47.4312 302.804 47.7408 303.338 47.8692 303.317C48.857 303.047 49.7723 302.657 50.7071 302.319C52.1777 301.74 53.6622 301.125 55.1524 300.598C55.7216 300.374 56.369 300.357 56.9382 300.133C57.3177 299.984 57.5801 299.523 57.8676 299.201L57.8201 299.22C58.9028 298.913 59.8572 298.627 60.9005 299.735C61.372 300.264 62.424 300.237 63.1829 300.445C62.6224 298.521 63.3481 297.193 65.2233 296.603C65.413 296.528 65.5972 296.367 65.8009 296.257C67.2491 296.342 68.3179 295.563 69.4118 294.924C69.3867 294.785 69.3142 294.665 69.2891 294.526C68.7143 294.663 68.1534 294.764 67.5786 294.901C67.6037 294.534 67.6764 294.148 67.7183 293.536C67.2076 293.916 66.976 294.096 66.7444 294.277C66.7696 293.909 66.7808 293.577 66.7809 293.071C66.139 293.681 65.6813 294.129 65.0255 294.775C65.9742 294.908 66.5796 294.997 67.1851 295.086C66.7637 295.341 66.3423 295.597 65.8121 295.925C65.7926 295.873 65.8233 296.099 65.8539 296.325C65.2205 296.306 64.5676 296.236 63.9342 296.217C64.0571 295.603 64.0795 294.939 64.3029 294.374C64.9114 292.735 66.6274 292.953 67.7827 292.259C68.1092 292.041 68.6924 292.288 69.2923 292.291C69.4764 292.635 69.6799 293.538 70.2212 293.891C70.7624 294.244 71.6079 294.03 72.3222 294.046C72.7938 294.069 73.2793 294.057 73.7648 294.044C73.7425 294.202 73.7676 294.341 73.7452 294.499C73.455 294.524 73.1648 294.549 72.9081 294.59C72.9137 294.677 72.9053 294.8 72.8774 294.87C73.7897 295.196 74.7161 295.487 75.6284 295.813C75.6843 295.672 75.7736 295.547 75.8155 295.441C75.3049 294.808 74.8279 294.192 74.2114 293.422C74.9425 293.193 75.8159 292.909 76.6419 292.644C76.4049 291.724 76.218 291.083 75.0459 292.021C74.3511 292.563 73.1931 292.452 72.342 292.579C72.0017 292.326 71.6752 292.037 71.3488 291.749C71.7621 290.097 73.1935 289.92 74.6194 289.657C74.3934 289.925 74.2008 290.209 73.9468 290.547C75.2192 290.165 76.3968 289.821 77.5604 289.512L77.5409 289.46C77.5715 290.192 77.6216 290.977 77.6437 291.832C78.559 291.442 79.5189 291.243 80.2138 290.701C80.9366 290.089 81.2741 290.552 81.7205 290.942C81.6703 291.17 81.5865 291.382 81.5083 291.681C82.5379 291.811 83.5201 291.961 84.5162 292.075C84.2708 291.278 84.137 290.705 83.886 289.821C83.4757 290.251 83.1883 290.572 82.8757 290.755C82.7055 290.882 82.3902 290.767 82.114 290.757C82.3429 290.28 82.5718 289.802 82.8006 289.325C82.5942 289.138 82.3208 288.918 81.9469 288.648C82.4772 288.32 82.8985 288.065 83.2864 287.793C83.2669 287.741 83.2139 287.673 83.1944 287.621C82.7284 287.685 82.2764 287.714 81.7769 287.762C82.4159 287.362 83.0885 286.978 83.7275 286.577C84.4112 286.368 85.0474 286.177 85.7311 285.967C85.1924 286.417 84.6064 286.886 83.959 287.409C85.0165 287.47 86.1075 287.546 87.165 287.607C87.0728 287.941 86.9612 288.223 86.8132 288.698C87.5359 288.592 88.1442 288.472 88.8669 288.366C88.5041 288.777 88.2641 289.08 87.9013 289.491C89.1904 289.371 90.2814 289.448 91.2692 289.178C92.3519 288.871 93.3649 288.234 94.3835 287.684C96.0746 286.75 98.1589 286.644 99.3898 284.849C100.073 284.639 100.757 284.429 101.474 284.236C101.954 284.137 102.415 283.985 102.895 283.886C102.981 283.971 103.054 284.091 103.14 284.176C102.635 284.643 102.149 285.162 101.591 285.561C100.877 286.05 100.123 286.436 99.3504 286.771C97.7709 287.422 96.186 287.987 94.6205 288.603C94.4307 288.678 94.2605 288.804 94.1042 288.896C93.1806 289.408 92.2429 289.956 91.2997 290.417C89.9156 291.081 88.5259 291.658 87.1363 292.235C86.0926 292.646 84.996 292.988 83.9328 293.347C83.8379 293.385 83.7235 293.37 83.6956 293.441C82.1633 296.099 79.1611 294.779 77.1351 296.053C76.9175 296.199 76.7584 296.5 76.5798 296.749C76.7667 296.884 76.9676 296.983 77.2884 297.185C76.295 297.874 75.4689 298.646 74.1799 297.753C73.926 297.585 73.4517 297.772 73.0861 297.886C72.5643 298.091 72.062 298.349 71.3699 298.681C71.4006 298.907 71.4284 299.343 71.4674 299.953C71.0628 299.964 70.4294 299.945 69.5727 299.984C69.9635 299.503 70.1895 299.235 70.3821 298.951C70.2956 298.866 70.1757 298.764 70.0892 298.679C69.8408 299.104 69.6258 299.546 69.3105 299.939C69.2072 300.098 68.956 300.227 68.7607 300.215C68.4705 300.239 68.1302 299.986 67.8595 300.063C66.255 300.576 64.6365 301.124 62.9706 301.69C63.2523 302.294 63.4559 302.69 63.6986 303.191C61.6951 303.294 59.7726 303.396 57.8501 303.498C57.8612 303.672 57.8723 303.846 57.8835 304.021C58.3215 304.027 58.7122 304.052 59.3121 304.054C59.0469 304.724 58.8236 305.289 58.5863 305.889C58.4524 305.822 58.3184 305.756 58.1845 305.689C58.2683 305.478 58.352 305.266 58.5893 304.666C57.2778 304.944 56.223 305.181 55.1543 305.453C54.9311 305.511 54.6241 305.781 54.5738 306.009C54.1745 307.626 53.4685 307.993 51.9199 307.858C51.1526 307.773 50.3712 308.23 49.5927 308.476C51.0996 307.704 52.6205 306.897 54.1274 306.125C54.0688 305.969 54.0102 305.814 53.9516 305.658C52.0821 305.828 50.7453 307.487 48.6441 307.837C49.1658 308.138 49.4197 308.306 49.6541 308.423C49.5117 308.985 49.4028 309.564 49.2604 310.126C49.9356 310.039 50.6304 310.004 51.3001 309.83C51.5234 309.772 51.6825 309.471 51.8806 309.274C52.0787 309.583 52.2432 309.875 52.4943 310.253C52.7175 310.195 53.1166 310.098 53.5156 310C53.5742 310.156 53.6132 310.259 53.6718 310.415C52.6616 310.843 51.6849 311.287 50.6134 311.768C51.107 313.153 52.2538 313.088 53.2108 313.605C52.3737 313.696 51.5561 313.84 50.6241 313.968C50.8249 314.574 51.0453 315.232 51.2656 315.89C51.5781 315.707 51.9381 315.506 52.393 315.267C52.7557 315.363 53.2858 315.541 54.1452 315.799C53.0625 316.106 52.2505 316.336 51.2152 316.625C51.9098 317.602 52.4343 318.2 52.836 318.906C53.4748 320.024 54.5572 321.236 54.5626 322.336C54.5763 323.82 55.4635 324.514 55.9823 325.531C56.0213 325.634 56.0939 325.755 56.0659 325.825C55.3456 328.254 56.9526 329.557 58.7353 331.327C58.1409 331.413 57.7893 331.491 57.2759 331.574C59.5665 333.175 60.325 335.914 61.7197 338.463C61.1114 338.077 60.5032 337.691 59.775 337.203C60.2018 338.048 60.5365 338.72 60.8712 339.393C62.6514 339.854 62.8104 340.059 61.9117 341.217C62.0317 341.319 62.1991 341.402 62.2576 341.557C62.7764 343.081 63.9314 343.907 65.0167 344.909C66.1019 345.912 67.0699 347.109 67.9905 348.326C68.607 349.096 69.0533 349.992 69.561 350.835C69.4522 350.908 69.3433 350.98 69.2345 351.053C68.7854 350.366 68.3502 349.644 67.8481 348.888C67.7141 349.328 67.594 349.733 67.488 350.102C67.1115 348.523 66.1296 347.361 64.9159 346.379C64.8824 346.869 64.8628 347.323 64.8432 347.778C64.5418 347.628 64.1651 347.568 63.9057 347.313C63.2668 346.7 62.6559 346.018 62.0309 345.37C61.858 345.2 61.6515 345.013 61.3139 345.057C62.399 347.072 63.5175 349.104 64.5886 351.154C64.4993 351.279 64.41 351.403 64.3347 351.493C63.5813 351.372 62.7945 351.235 61.9602 351.117C60.9945 352.242 61.5384 353.398 62.2916 354.531C62.2023 354.656 62.113 354.78 61.9902 354.888C61.4769 354.465 60.8882 354.131 60.5311 353.616C60.0876 353.016 59.8756 352.236 59.4321 351.636C59.4626 352.875 59.7051 353.881 60.6565 354.817C61.4683 355.6 61.8699 356.812 62.5171 357.808C62.9327 358.479 63.4432 359.112 64.0765 359.637C63.7223 358.912 63.382 358.153 62.9497 357.221C63.4798 357.399 63.7951 357.514 64.1438 357.644C64.2332 357.52 64.3894 357.428 64.3839 357.341C64.1191 355.48 65.7318 355.857 66.5355 355.243C66.5969 355.189 66.7448 355.22 66.7644 355.272C67.7183 357.011 69.3448 358.367 69.3891 360.583C68.4546 359.402 67.5535 358.238 66.5799 356.953C66.1501 357.331 65.1233 357.497 65.7341 358.686C66.1609 359.531 66.716 360.355 67.2377 361.162C67.3102 361.283 67.4106 361.332 67.5166 361.469C67.6172 361.013 67.6898 360.627 67.7037 360.592C68.3957 360.766 68.9872 360.89 69.5648 361.05C71.3447 363.03 72.9069 365.156 74.2625 367.601C73.922 367.854 73.5007 368.109 73.1462 368.397C73.2912 369.145 73.4557 369.944 73.6062 370.778C73.7151 370.705 73.8379 370.597 74.0834 370.382C74.0862 370.678 74.0694 370.923 74.0861 371.185C74.2479 371.181 74.3763 371.16 74.4712 371.123C74.8367 371.008 75.1772 370.755 75.5204 370.799C75.7017 370.847 76.4383 371.212 75.8243 371.751C76.3153 372.333 76.7924 372.949 77.2973 373.495C77.3503 373.563 77.7522 373.256 78.221 372.982C78.6924 374.018 79.1972 375.07 79.6686 376.106C79.73 376.052 79.9282 375.855 80.1598 375.674C80.2128 375.743 80.2797 375.776 80.3328 375.844C80.0983 376.235 79.9113 376.606 79.6768 376.996C79.0631 376.523 78.9709 376.857 78.848 377.471C78.6274 378.839 79.4726 380.145 81.1411 380.888C81.4647 380.879 81.7549 380.855 82.4358 380.855C82.1343 381.212 82.0087 381.529 81.7576 381.658C81.4311 381.876 81.046 381.938 80.633 382.071C81.375 383.536 82.0723 384.81 82.7222 386.103C82.5994 386.211 82.4571 386.267 82.3343 386.375C81.5365 385.051 80.7053 383.71 79.9075 382.386C79.2157 381.199 79.2383 379.522 77.4834 378.694C77.9547 379.73 78.309 380.454 78.6158 381.197C77.9488 381.668 77.3433 382.085 76.7237 382.538C77.1756 383.521 77.6665 384.609 78.1713 385.661C78.1434 385.732 78.096 385.75 78.0681 385.821C77.4822 385.277 76.9298 384.75 76.3439 384.206C76.2686 384.296 76.1932 384.385 76.1179 384.474C76.8655 385.52 77.6326 386.618 78.3803 387.664C78.2909 387.789 78.1821 387.861 78.0928 387.986C77.7469 387.645 77.4009 387.305 77.0215 386.948C76.9266 386.985 76.8178 387.058 76.7229 387.095C77.0354 387.419 77.3339 387.778 77.6463 388.102C77.504 388.158 77.4091 388.195 77.2668 388.251C76.6921 387.882 76.0839 387.496 75.4952 387.162C75.4059 387.286 75.3305 387.375 75.2412 387.5C76.6974 389.488 78.187 391.493 79.7297 393.567C77.905 392.915 76.5966 391.464 76.1142 389.748C76.0695 389.557 76.0389 389.331 75.9329 389.194C75.4279 388.648 74.923 388.102 74.4041 387.591C74.0386 387.199 73.6453 386.877 73.2798 386.485C73.1905 386.61 73.1012 386.734 73.0119 386.859C73.4973 387.353 73.9492 387.83 74.4347 388.324C74.3788 388.465 74.2895 388.59 74.2337 388.731C73.4441 388.297 72.621 387.847 71.6111 387.261C72.3865 388.743 73.0504 390.001 73.7533 391.362C73.5245 391.333 73.2287 391.271 72.8325 391.159C72.9218 391.541 73.0054 391.836 73.1197 392.356C72.3525 391.765 71.7722 391.308 70.9854 390.665C70.9155 391.348 70.8764 391.75 70.8094 392.224C68.4297 389.735 66.3486 387.099 64.4991 384.283C64.6079 384.21 64.6972 384.086 64.8061 384.013C65.2162 384.596 65.6262 385.179 66.0503 385.727C66.1591 385.655 66.2205 385.601 66.3293 385.528C65.6375 384.341 64.9318 383.189 64.1675 381.881C63.9192 381.801 63.4225 381.639 62.9119 381.512C63.0095 381.771 63.1741 382.064 63.2912 382.375C63.2298 382.429 63.135 382.467 63.0736 382.521C62.538 381.749 62.0358 380.993 61.5002 380.221C61.3719 380.242 61.2575 380.227 61.1291 380.248C61.09 380.651 60.9085 381.109 61.0592 381.437C61.7062 382.94 62.4147 384.389 63.2543 386.113C62.5903 385.868 62.1271 385.723 61.6779 385.543C61.9931 386.163 62.2608 386.802 62.7797 387.819C62.1184 387.365 61.7641 387.147 61.1224 386.744C61.7863 388.002 62.319 388.984 62.8323 389.913C62.6091 389.972 62.3719 390.065 62.1012 390.142C62.1849 390.436 62.2546 390.766 62.3996 391.007C63.6522 392.599 64.9466 394.085 66.1378 395.731C66.6678 396.416 66.9662 397.281 67.1418 398.255C65.4512 396.657 63.7131 395.077 62.0839 393.425C61.5315 392.898 61.1912 392.138 60.7002 391.557C60.4743 391.318 60.1255 391.188 59.8102 391.074C59.3136 390.912 58.8225 390.837 59.5118 390.208C59.5732 390.154 59.4895 389.859 59.3835 389.722C57.8968 387.001 56.4854 384.191 54.8284 381.597C54.2537 380.721 53.827 379.876 53.523 378.924C53.3417 378.37 53.2888 377.795 53.3057 377.043C53.7743 377.782 54.2765 378.538 54.7451 379.277C54.8874 379.221 55.0297 379.164 55.172 379.108C54.3686 378.204 56.2996 377.473 55.1223 376.298C54.9074 376.74 54.7957 377.023 54.5389 377.571C54.302 376.145 53.7356 375.653 52.5944 375.804C52.2093 375.867 51.7183 375.285 51.2635 375.018C51.3333 374.841 51.4226 374.717 51.4924 374.54C51.8356 374.584 52.1984 374.679 52.8373 374.785C52.444 373.957 52.1428 373.301 51.8416 372.645C51.6992 372.701 51.5709 372.722 51.3951 372.762C51.2834 373.044 51.1718 373.326 50.9764 373.82C50.5077 373.081 50.1311 372.515 49.7545 371.948C50.3349 371.898 50.6726 371.855 51.0437 371.828C50.907 371.464 50.8317 371.047 50.5862 370.757C50.4077 370.499 50.045 370.404 49.7576 370.219L49.7771 370.271C49.7409 369.958 49.7996 369.607 49.702 369.347C49.5514 369.02 49.2445 368.783 48.985 368.528C49.0604 368.438 49.1692 368.366 49.2585 368.241C49.73 368.771 50.154 369.318 50.8375 370.122C50.7931 368.411 50.2129 367.448 48.8234 367.013C48.9323 366.94 49.0885 366.849 49.1974 366.776C48.7957 366.07 48.3466 365.383 47.9589 364.642C47.7022 364.177 47.5545 363.64 47.3118 363.14C47.0691 362.64 46.7176 362.212 46.5224 361.693C46.3216 361.087 46.3719 360.352 46.1097 359.8C45.5854 358.696 44.8852 357.631 44.2659 356.565C43.5741 355.377 42.9298 354.172 42.0483 353.059C42.1375 353.441 42.2407 353.788 42.3494 354.221C41.3812 354.037 41.7945 351.878 40.2597 352.721C40.0645 352.202 39.8748 351.77 39.6991 351.303C39.7466 351.285 39.808 351.231 39.8554 351.212C40.0674 351.486 40.246 351.743 40.7369 352.324C40.7874 351.083 40.8266 350.174 40.8519 349.3C40.8519 349.3 41.0388 349.435 41.1643 349.624C41.3233 349.83 41.4126 350.212 41.5995 350.346C41.8869 350.531 42.2775 350.556 42.6402 350.652C42.6849 350.336 42.8385 349.948 42.7408 349.689C42.3699 348.703 41.9655 347.7 41.4383 346.806C41.2347 346.409 40.7045 346.231 40.3112 345.909C40.1102 346.316 39.9092 346.723 39.5547 347.518C39.2312 346.513 39.0388 345.785 38.8185 345.127C39.318 345.079 39.703 345.017 40.0881 344.954C39.918 344.575 39.7952 344.176 39.6251 343.796C39.2402 342.846 38.8079 341.914 38.3895 340.947C38.4983 340.874 38.6072 340.801 38.716 340.729C39.0982 341.383 39.5138 342.053 39.9099 342.671C40.0188 342.599 40.1611 342.543 40.2559 342.505C39.4722 340.64 38.7024 338.738 37.8601 336.717C37.9215 336.663 38.1336 336.43 38.181 336.412C37.1684 335.023 36.2953 333.788 35.3886 332.537C35.3412 332.556 35.2798 332.61 35.2324 332.628C35.5084 333.651 35.7845 334.675 36.0521 335.82C35.5053 335.38 35.0785 335.042 34.5512 334.654C34.5512 334.654 34.6963 334.388 34.9252 333.911C34.4341 333.836 34.024 333.759 33.6138 333.682C33.7505 334.046 33.8341 334.34 33.8927 334.496C32.6121 333.481 31.3455 332.431 30.2323 331.499C30.4975 330.829 30.8911 330.138 31.0224 329.401C31.081 329.05 30.5342 328.61 30.1241 328.027C30.2693 327.761 30.5316 327.3 30.794 326.84C31.6031 327.325 32.3648 327.83 32.3143 329.071C31.9851 328.992 31.6558 328.913 31.1118 328.77C32.2164 330.331 33.1091 331.617 35.0512 331.568C34.1057 329.2 33.1992 326.935 32.2928 324.671C32.1979 324.708 32.0695 324.729 31.9747 324.766C31.969 325.186 31.9773 325.57 31.9717 325.989C31.8852 325.904 31.8182 325.87 31.7317 325.785C31.4303 326.142 31.1484 326.551 30.847 326.908C30.4732 326.638 30.1188 326.42 29.558 326.016C26.2875 327.601 22.7519 329.351 19.2107 331.013C17.2908 331.918 15.2984 332.702 13.3646 333.643C12.5777 334.012 11.7823 334.504 11.6789 335.676C11.6537 336.044 11.1765 336.44 10.8305 336.606C9.71147 337.106 8.56738 337.468 7.43442 338.003C6.94609 338.225 6.60837 338.775 6.15907 339.101C5.86605 339.335 5.50606 339.537 5.14607 339.738C5.03724 339.811 4.80288 339.694 4.77496 339.765C3.83149 341.745 1.64111 341.714 0.162038 342.922C-1.99796 344.636 -4.40901 345.972 -6.7615 347.465C-7.50938 347.938 -8.27679 348.359 -9.0442 348.78C-9.11673 348.66 -9.18925 348.54 -9.29526 348.403C-4.49532 344.875 0.31858 341.311 5.152 337.8C5.11296 337.696 5.04043 337.575 4.98742 337.507C3.46657 338.314 1.92618 339.07 0.424855 339.929C-3.2643 342.066 -7.16821 343.633 -11.2673 344.681C-12.3361 344.953 -13.6113 345.038 -14.4094 345.74C-17.3425 348.295 -21.0788 348.932 -24.4302 350.519C-24.7288 350.667 -25.072 350.623 -25.7333 350.675C-25.203 349.841 -24.8653 349.291 -24.7201 349.025C-23.844 349.037 -23.2301 349.004 -22.2256 348.996C-22.8226 348.278 -23.1546 347.902 -23.3471 347.68C-20.5091 346.175 -17.5902 344.669 -14.6573 343.127C-14.6824 342.988 -14.7549 342.867 -14.78 342.728C-15.2069 342.896 -15.6534 343.013 -16.0469 343.197C-18.9685 344.407 -21.8177 345.737 -24.7979 346.792C-26.2406 347.3 -27.8255 347.358 -29.3797 347.643C-29.5555 347.682 -29.6672 347.964 -29.8234 348.056C-30.5239 348.51 -30.7917 348.377 -31.5366 347.628C-31.7096 347.458 -32.1895 347.557 -32.5076 347.653C-32.8118 347.713 -33.1243 347.896 -33.4229 348.043C-33.4229 348.043 -33.4759 347.975 -33.6489 347.804C-32.7866 347.346 -31.9718 346.906 -31.1234 346.482C-30.7831 346.736 -30.4232 347.041 -30.1693 347.209C-28.9916 346.358 -27.8754 345.561 -26.7591 344.764C-26.7647 344.677 -26.7702 344.59 -26.7758 344.502C-27.6603 344.612 -28.5114 344.739 -29.382 344.814C-29.3625 344.866 -29.329 344.882 -29.3095 344.934C-30.1242 344.868 -31.0226 344.507 -31.7537 344.735C-33.2829 345.158 -34.7424 345.912 -36.252 346.387C-36.7599 346.557 -37.4239 346.312 -38.0908 346.277C-37.8533 344.664 -36.4917 344.664 -35.5372 343.871C-35.8609 343.88 -36.2376 343.819 -36.5222 343.931C-38.1491 344.602 -38.5983 344.421 -39.6583 342.545C-38.1011 341.545 -36.5914 340.563 -35.0956 339.617C-35.1486 339.548 -35.3411 339.326 -35.4862 339.085C-35.2295 339.044 -34.9923 338.95 -34.7355 338.909C-33.2678 338.54 -31.8335 338.154 -30.2374 337.763C-31.0547 336.387 -31.7049 336.614 -32.5392 337.002C-34.981 338.112 -37.4617 339.118 -40.0289 340.04C-38.4298 338.427 -36.376 337.589 -34.0738 336.325C-34.7072 336.306 -34.9165 336.329 -35.1592 336.335C-33.8951 335.57 -32.7649 334.737 -32.9347 332.838C-35.0556 334.15 -37.143 335.478 -39.2499 336.755C-38.2085 333.515 -34.9188 334.007 -33.2443 331.798C-33.3809 331.435 -33.8385 331.377 -34.3827 331.74C-36.1101 332.867 -37.8765 333.89 -39.936 335.148C-39.7657 334.515 -39.6819 334.303 -39.5619 333.899C-40.0865 333.807 -40.5915 333.768 -41.2779 333.681C-40.8286 333.355 -40.5356 333.12 -40.223 332.938C-40.2425 332.886 -40.2816 332.782 -40.3011 332.73C-40.7141 332.863 -41.1745 333.015 -41.6824 333.185C-41.66 332.521 -41.6654 331.927 -41.643 331.263C-40.7305 331.082 -39.9101 330.729 -40.8977 329.48C-40.1023 328.988 -39.3405 328.48 -38.5257 328.04C-38.2745 327.911 -37.9648 327.938 -37.6411 327.93C-37.4318 327.907 -37.0356 328.019 -37.0356 328.019C-36.7703 326.842 -35.7408 326.973 -35.0013 326.622C-34.5604 326.419 -34.192 326.095 -33.6952 325.751C-33.7203 325.612 -33.7956 325.194 -33.8764 324.69C-34.228 324.769 -34.5657 324.812 -34.8698 324.873C-34.9674 324.613 -35.0846 324.302 -35.1822 324.042C-34.5822 323.538 -34.0212 322.93 -33.3487 322.546C-32.7236 322.181 -31.9506 321.847 -31.2223 321.828C-30.042 321.78 -29.5647 320.878 -28.828 320.23C-27.9824 319.51 -26.9722 319.082 -25.8169 318.389C-26.9413 317.789 -27.7729 317.968 -28.2083 318.765C-28.7609 319.757 -29.2577 320.101 -29.9886 319.317C-33.9679 321.479 -37.9333 323.607 -41.8652 325.75C-41.9573 325.578 -42.0493 325.406 -42.1274 325.198C-41.2791 324.775 -40.3917 324.455 -39.6159 323.912C-37.4923 322.39 -35.4076 320.765 -33.2839 319.244C-30.5407 317.27 -27.725 315.417 -24.9483 313.46C-23.2739 312.265 -21.633 311.053 -19.9056 309.926C-17.4163 308.29 -14.8936 306.671 -12.1058 304.889C-12.4325 306.119 -12.0085 307.174 -13.0048 307.566C-13.2419 307.659 -13.5237 307.562 -13.7414 307.707C-14.5367 308.199 -15.2791 308.759 -16.0214 309.32C-16.0214 309.32 -15.7536 309.959 -15.5723 310.007C-15.1956 310.067 -14.6291 310.052 -14.4505 309.803C-13.496 308.504 -12.4275 309.245 -11.4426 309.691C-10.5581 310.088 -10.2595 309.94 -9.86313 309.04C-9.41092 307.998 -8.59042 307.139 -7.93732 306.196C-7.39881 306.252 -6.6345 307.56 -6.517 305.846C-6.47787 305.443 -5.62397 305.107 -5.16072 304.746C-5.08819 304.866 -4.98219 305.003 -4.90966 305.123C-5.43157 305.835 -5.98696 306.53 -6.58423 307.332C-6.04288 307.178 -5.56293 307.078 -5.11647 306.962C-5.16664 306.684 -5.20286 306.371 -5.2586 306.005C-4.62803 306.234 -4.06443 306.429 -3.38642 306.638C-4.12318 307.286 -5.57133 307.201 -4.82663 308.963C-4.35498 308.479 -3.88334 307.996 -3.42565 307.548C-3.16893 307.506 -2.81734 307.427 -2.33739 307.328C-2.33183 307.415 -2.23421 307.674 -2.23704 307.884C-2.23986 308.093 -2.30409 308.357 -2.35435 308.585C-2.0502 308.525 -1.48376 308.511 -1.45585 308.44C-1.32449 307.197 -0.41759 306.929 0.480911 306.784C1.46033 306.637 1.70044 305.827 2.08843 305.049C2.23357 304.783 2.54612 304.601 2.62147 304.511C3.319 304.773 3.94674 305.211 4.49365 305.144C4.9122 305.099 5.20532 304.358 5.53465 303.93C5.65461 304.032 5.7411 304.117 5.87502 304.183C5.88067 303.764 5.87237 303.38 5.86963 303.083C6.51425 302.77 7.06398 302.494 7.66116 302.199C6.87715 301.853 6.19914 301.643 5.59092 301.257C4.35496 300.433 6.02644 299.954 5.46018 298.955C6.46178 299.663 5.74993 301.462 7.4995 301.191C7.15356 300.85 6.90807 300.56 6.61513 300.288C7.59738 299.931 8.54615 299.557 9.54236 299.165C9.5814 299.269 9.65393 299.389 9.69298 299.493C9.2716 299.748 8.8837 300.02 8.35348 300.348C8.78873 300.564 9.15702 300.747 9.65923 300.996C9.14854 301.375 8.69924 301.701 8.24994 302.027C8.34199 302.199 8.40056 302.355 8.50657 302.492C10.0609 301.701 11.6013 300.946 13.0942 300.209C12.7456 299.572 12.5084 299.159 12.1933 298.538C12.1458 298.557 11.7273 298.603 11.0241 298.76C11.5571 298.223 11.8781 297.918 12.3357 297.469C11.6996 297.154 11.1304 296.872 10.6617 296.639C10.5584 297.305 10.4494 297.885 10.3266 298.499C10.1982 298.52 10.0698 298.54 9.94148 298.561C9.68768 297.887 9.44784 297.177 9.13547 296.347C8.98759 296.315 8.64439 296.272 8.02495 296.218C8.53008 295.751 8.8845 295.462 9.20544 295.157C9.16639 295.054 9.12734 294.95 9.0883 294.846C8.10605 295.203 7.15728 295.577 6.17503 295.934L6.19455 295.985C6.71921 295.57 7.20481 295.051 7.78803 294.792C8.68936 294.437 9.17213 294.128 8.89334 292.808C8.12381 289.388 7.25385 285.917 7.12612 282.393C6.99555 279.079 6.89847 275.781 6.72047 272.485C6.66482 271.613 6.21853 270.717 7.4491 270.441C7.49654 270.422 7.4241 269.795 7.30697 269.484C6.55953 267.425 7.02305 265.545 7.5424 263.523C7.94727 261.994 8.50274 260.792 9.57166 259.507C9.85045 260.827 10.0791 261.869 10.3133 262.998C10.2798 262.982 10.5281 263.063 10.7764 263.144C10.6843 263.478 10.4303 263.816 10.4805 264.094C11.1414 266.574 11.9111 268.982 12.505 271.429C12.8061 272.591 13.205 273.506 14.2763 274.038C14.0308 274.254 13.8047 274.521 13.6065 274.718C14.1561 275.455 14.6471 276.036 15.1241 276.653C15.3893 275.982 14.8316 274.355 14.2289 274.056C14.176 273.481 14.1426 272.958 14.0897 272.384C14.0088 272.386 13.9278 272.388 13.833 272.425C13.9781 272.159 14.0898 271.877 14.0898 271.877C13.7327 271.362 13.3728 271.057 13.2696 270.711C13.0967 270.034 13.1471 269.299 13.0217 268.604C12.6481 266.815 12.2075 264.993 11.7893 263.013C11.8256 262.82 11.9596 262.38 12.0462 261.958C11.4937 262.444 11.1113 262.803 10.6815 263.181C10.69 262.552 10.665 261.907 10.654 261.226C11.0446 261.251 11.3683 261.242 11.7255 261.251C11.7981 260.865 11.8233 260.497 11.9238 260.041C12.8333 260.576 13.6759 261.079 14.9398 261.832C14.8787 259.86 14.84 258.237 14.8096 256.492C15.0049 256.504 15.443 256.51 15.8336 256.535C15.8224 256.867 15.7777 257.183 15.7665 257.515C16.0651 257.368 16.3637 257.22 16.6622 257.073C16.5395 256.674 16.4364 256.328 16.2886 255.79C16.6652 255.851 17.0029 255.807 17.2233 255.958C19.0703 256.959 19.327 256.917 20.463 255.159C20.3401 255.774 20.1698 256.407 20.0469 257.021C20.1808 257.088 20.2952 257.102 20.4291 257.169C20.5966 256.745 20.7976 256.338 20.9316 255.898C21.0796 255.423 21.1941 254.931 21.4564 254.47C20.8229 255.465 23.3423 256.587 21.5117 257.368C22.1144 257.667 22.717 257.966 23.4536 258.331C24.5392 257.308 24.5281 257.133 22.9407 255.375C22.5753 254.983 22.2237 254.556 21.5458 253.84C22.8182 253.964 23.7558 253.416 24.3025 254.869C24.4391 255.232 25.4157 255.295 26.0463 255.523C26.1468 255.066 26.2194 254.68 26.3339 254.188C27.8459 256.036 29.6149 256.828 32.0788 256.067C31.493 255.523 31.041 255.046 30.4551 254.502C31.0635 254.381 31.5908 254.263 32.2605 254.089C32.1964 253.846 32.1016 253.377 32.0208 252.873C33.3742 251.982 33.3628 253.834 34.2723 254.369C34.3338 253.809 34.2279 253.165 34.4735 252.949C34.7804 252.68 35.372 252.804 35.8714 252.756C35.7011 253.389 35.5671 253.829 35.4331 254.269C35.3214 254.552 35.1428 254.801 34.7828 255.002C34.824 258.948 35.1665 263.042 36.1925 267.434C36.628 266.637 36.8764 266.212 37.1666 265.68C37.518 267.121 37.9112 268.455 38.2095 269.827C38.2736 270.07 38.0336 270.373 37.9219 270.655C37.7155 270.468 37.509 270.282 37.1491 269.977C36.6492 272.556 37.4803 274.91 38.024 277.585C38.1468 276.971 38.225 276.672 38.2976 276.286C38.4511 276.404 38.6185 276.487 38.6241 276.574C38.6714 277.062 38.7662 277.531 38.7326 278.021C38.6544 278.826 38.9445 279.308 39.7173 279.48C38.442 280.578 39.5188 282.209 38.8376 283.729C39.6944 283.183 40.286 282.801 40.925 282.4C40.8359 281.512 40.7272 280.572 40.6381 279.684C40.2614 279.623 39.9657 279.561 39.6699 279.499C40.0551 278.93 40.4263 278.397 40.8114 277.828C40.9258 277.843 41.0402 277.857 41.2021 277.853C41.3497 279.403 41.5113 280.918 41.684 282.608C44.4354 281.525 47.2677 280.439 50.0666 279.337C50.1391 279.458 50.1642 279.597 50.2367 279.717C47.6303 281.547 44.4353 282.031 41.6308 283.552C41.8483 284.42 42.0462 285.235 42.2777 286.068C42.4256 286.099 42.54 286.113 42.6739 286.18C42.8079 285.74 42.9559 285.264 43.0564 284.808C43.1709 284.316 43.2714 283.859 43.3859 283.368C43.5003 283.382 43.6482 283.413 43.7486 283.463C43.7541 284.057 43.807 284.631 43.8348 285.067C44.4013 285.053 44.9817 285.003 45.7713 284.93C46.1148 283.455 47.4847 284.345 48.5562 284.37C48.3387 283.503 49.2569 282.396 50.0632 282.585C51.662 282.998 52.7671 282.027 54.0229 281.384C54.6201 281.089 55.4739 281.259 56.2496 281.222C56.6098 279.501 58.6636 278.663 60.4743 279.856C59.6036 280.437 58.7023 280.792 58.1609 281.452C57.6055 282.147 57.7559 283.488 56.2632 283.212C55.92 283.169 54.5835 282.801 54.8064 284.262C54.7925 284.298 54.2511 284.451 53.9749 284.441C53.1657 284.462 52.3175 284.378 51.5222 284.364C51.5195 284.067 51.4972 283.718 51.475 283.37C50.2806 283.959 49.1812 284.511 47.7831 285.211C48.916 285.182 49.6917 285.144 50.6292 285.103C49.0553 286.348 47.6795 287.396 46.3232 288.496L46.3706 288.477C45.2741 288.313 44.5178 288.909 43.9987 289.411C44.9334 289.579 45.6924 289.787 46.4848 290.011ZM12.3447 294.309C12.4592 293.817 12.5262 293.343 12.6994 292.501C11.9264 292.835 11.3655 292.937 11.0781 293.258C10.9274 293.437 11.2286 294.093 11.3039 294.51C11.7838 294.41 12.088 294.35 12.3921 294.29C11.9622 295.68 11.9173 297.009 13.1281 298.2C13.6668 297.243 14.1161 296.411 14.4623 295.739C14.0103 295.261 13.6309 294.904 13.2654 294.512C13.0868 294.761 12.9556 294.991 12.8524 295.151C12.7017 294.823 12.5232 294.566 12.3447 294.309ZM34.0845 275.294C33.9257 273.569 33.8005 271.861 33.6306 269.962C32.556 271.666 33.2031 273.169 33.6214 274.642C33.6855 274.885 33.9729 275.07 34.1319 275.275C34.0705 275.329 33.9617 275.402 33.9672 275.489C34.2429 278.538 34.5186 281.587 34.8418 284.617C34.8529 284.791 35.0928 284.994 35.2742 285.042C35.4081 285.109 35.7402 284.978 35.7207 284.926C35.8074 283.492 36.1928 281.91 35.7242 280.665C35.4258 279.8 35.2586 278.704 34.656 277.898C34.55 277.762 34.7565 277.442 34.6785 277.234C34.5391 276.574 34.3048 275.952 34.0845 275.294ZM17.2475 261.162C17.6882 261.971 18.1429 262.745 18.7677 263.899C19.0248 261.832 19.293 259.939 19.5054 258.188C18.6655 257.982 18.021 257.789 17.1477 257.567C16.6759 258.557 16.1065 259.794 15.3919 261.296C16.0393 261.28 16.296 261.238 16.4578 261.234C16.4216 260.921 16.2459 260.454 16.3352 260.329C16.8124 259.933 17.3426 259.605 17.8728 259.277C17.9788 259.414 18.0709 259.586 18.2104 259.74C17.9006 260.219 17.5908 260.699 17.2475 261.162C16.0641 262.938 17.0766 264.833 17.1935 266.664C17.2575 267.413 17.5643 268.156 17.7428 268.92C17.8377 268.882 17.9186 268.88 18.0135 268.843C17.7712 266.317 17.5093 263.739 17.2475 261.162ZM49.7164 319.3C50.1599 319.9 50.6035 320.5 51.047 321.099C51.0694 320.942 51.0917 320.784 51.1141 320.626C51.6554 320.473 52.2163 320.371 52.7576 320.217C52.7521 320.13 52.7465 320.043 52.7409 319.956C52.1215 319.902 51.516 319.813 50.8966 319.759C51.0083 318.97 50.3247 319.18 49.7164 319.3C49.9399 317.723 48.3074 318.306 47.9504 317.285C47.3197 318.069 46.8397 318.675 46.2982 319.335C47.4364 320.913 48.7475 322.66 50.0977 324.511C49.774 324.52 49.5787 324.507 49.4169 324.511C49.4696 326.099 50.234 326.9 51.6961 326.95C51.7519 327.315 51.8411 327.697 51.8299 328.029C51.8187 328.361 51.693 328.679 51.5869 329.048C51.9496 329.65 52.3094 330.462 52.8394 331.147C53.389 331.884 54.0753 332.477 54.7337 333.141C54.7951 333.087 54.8565 333.033 54.9318 332.944C53.8467 330.929 52.7617 328.914 51.6626 326.934C51.7464 326.722 52.0004 326.384 51.9613 326.28C51.4732 325.489 50.9236 324.752 50.4075 324.032C50.5611 323.644 50.8764 323.252 50.7649 323.028C50.2209 321.871 49.5822 320.753 48.9769 319.651C48.8848 319.478 48.7314 319.36 48.6923 319.256C49.1025 319.333 49.4262 319.325 49.7164 319.3ZM20.079 280.629C20.464 281.074 20.8127 281.711 21.2619 281.891C22.2607 282.302 22.6401 283.166 22.0818 284.071C21.7999 284.479 21.532 284.853 21.0436 285.581C22.0397 285.696 22.7596 285.799 23.446 285.887C25.0476 286.09 25.0476 286.09 24.5618 287.622C24.9162 287.333 25.4548 286.883 25.3712 286.588C25.1843 285.947 24.6654 285.436 24.2888 284.87C25.0843 283.365 24.4651 281.792 24.2366 280.244C23.8604 277.651 23.6795 275.071 23.3897 272.564C23.1554 272.448 22.8205 272.282 22.2514 272C22.5468 274.088 22.8171 276.037 23.1097 278.334C22.5126 278.122 21.9685 277.979 21.4384 277.801C21.3435 277.838 21.4494 278.481 21.1954 278.82C20.7963 279.424 21.064 280.569 19.9981 280.632C19.0494 280.499 19.7862 279.851 19.63 279.436C19.5128 279.125 19.5101 278.828 19.4404 278.498C19.2646 278.537 19.1028 278.542 18.927 278.581C18.9686 279.994 18.9962 281.443 19.0378 282.856C19.1522 282.871 19.3001 282.902 19.4285 282.881C19.1354 283.116 18.8424 283.35 18.6108 283.531C19.0655 284.305 19.4672 285.011 19.8688 285.716C19.9972 285.696 20.1116 285.71 20.24 285.689C20.24 285.183 20.4578 284.531 20.2402 284.17C19.7298 283.031 19.9951 281.854 20.079 280.629ZM60.6894 373.868C61.1302 374.171 62.2129 373.864 61.7104 375.134C61.6406 375.311 62.1735 375.786 62.4385 376.128C62.5111 375.742 62.6842 375.406 62.6619 375.057C62.6146 374.57 62.4389 374.103 62.2911 373.565C62.6092 373.47 62.8938 373.358 63.2928 373.26C62.9107 372.606 62.5815 372.021 62.1603 371.263C62.1602 371.77 61.6217 371.714 60.7987 371.263C60.7037 371.807 60.6367 372.28 60.5556 372.789C60.2069 372.658 59.8162 372.633 59.5289 372.448C58.9876 372.096 58.1646 371.645 58.1032 371.193C57.9668 369.817 58.0951 369.796 56.8619 369.269C57.007 369.003 57.1522 368.737 57.1522 368.737C56.5217 368.003 55.9442 367.336 55.4002 366.687C55.4895 366.562 55.5984 366.49 55.6877 366.365C55.9835 366.427 56.2987 366.542 56.6615 366.637C55.7745 364.425 53.9527 363.057 51.4554 362.789C53.1821 365.713 54.7693 368.484 56.2784 371.047C56.016 371.508 55.6672 371.884 55.7258 372.039C55.9294 372.436 56.3729 373.036 56.5962 372.978C57.7179 372.774 57.807 373.663 58.1473 374.422C58.2784 374.698 58.482 375.095 58.6774 375.107C59.7209 375.203 60.17 375.89 60.3931 376.844C60.8085 378.527 62.3208 378.855 63.4898 379.646C62.5999 378.656 61.7574 377.647 60.901 376.674C61.1354 376.284 61.3419 375.964 61.5764 375.574C61.0742 375.325 60.6724 375.126 60.2372 374.91C60.3572 374.505 60.5163 374.204 60.6894 373.868ZM49.2812 350.062C49.5601 350.876 49.6855 352.078 50.0342 352.208C51.8534 352.773 51.1443 354.869 52.1766 355.803C52.1766 355.803 51.9979 356.052 51.9086 356.177C53.8506 356.633 54.4085 357.754 53.7218 359.186C54.5002 359.952 55.2116 360.685 56.1099 361.552C55.8283 359.935 55.6221 358.736 55.4158 357.536C55.5107 357.499 55.5916 357.497 55.6865 357.459C56.1077 358.217 56.5624 358.991 56.9975 359.713C57.3995 358.9 57.807 358.173 58.181 357.43C58.5299 356.548 55.9096 357.908 57.2074 356.146C56.3927 355.573 55.5446 354.983 54.6769 354.342C54.7803 353.676 54.8976 352.974 54.9675 352.292C54.7917 352.331 54.521 352.408 54.5015 352.356C54.0217 351.443 53.5559 350.494 53.1236 349.562C53.1041 349.51 53.1124 349.388 53.1208 349.265C53.4166 349.328 53.7319 349.442 54.0137 349.539C53.6566 349.025 53.0595 348.813 52.7555 348.367C51.7568 346.943 50.7162 345.625 50.3176 343.697C49.9189 341.769 48.5045 340.181 46.878 338.826C46.9338 338.685 47.0455 338.402 47.1013 338.261C46.5573 337.612 46.0524 337.066 45.3494 336.211C45.2879 336.771 45.059 337.248 45.2236 337.541C46.0771 339.23 47.0395 340.847 47.9739 342.535C48.2501 343.051 48.3532 343.904 48.7549 344.104C50.2141 344.87 49.9543 346.64 50.8079 347.823C52.0242 349.608 52.3139 352.115 53.0056 354.315C52.7991 354.128 52.4308 353.946 52.2662 353.653C51.2342 351.706 50.2495 349.741 49.2175 347.794C49.0529 347.501 48.7599 347.229 48.5005 346.974C48.467 346.957 48.2354 347.138 48.2214 347.173C48.3246 347.52 48.4278 347.866 48.5924 348.159C48.7765 348.504 48.9745 348.813 49.1921 349.174C48.888 349.234 48.5698 349.33 48.2657 349.39C48.2378 349.46 48.2294 349.583 48.2015 349.653C48.5363 349.819 48.966 349.948 49.2812 350.062ZM16.39 281.754C15.6785 281.528 15.2014 281.418 14.7048 281.256C14.8276 281.148 14.9308 280.988 15.0536 280.88C14.5906 280.229 14.1135 279.612 13.6504 278.961C13.5416 279.033 13.4467 279.071 13.3379 279.143C13.6333 281.231 13.1 283.288 14.0483 285.446C14.8544 287.155 15.0019 289.211 15.4676 291.173C16.0062 290.722 16.7652 290.423 16.8797 289.932C17.0221 289.369 16.8298 288.134 16.5284 287.985C15.2952 287.458 15.7557 286.8 15.9289 285.957C16.021 285.623 15.65 285.143 15.4548 284.625C16.0519 284.33 15.7898 283.778 15.0086 283.222C15.9434 282.883 16.6131 282.709 16.8612 283.803C17.0982 284.722 17.112 285.7 17.349 286.619C17.4689 287.227 17.812 287.777 18.0268 288.348C18.1691 288.292 18.3449 288.253 18.4872 288.197C18.3591 286.698 18.2171 285.235 18.0472 283.336C18.5049 282.887 17.8325 282.259 17.5536 281.445C17.3138 280.735 17.7241 279.799 17.8638 278.94C16.5356 278.957 16.357 279.206 16.859 280.467C16.5967 280.422 16.3819 280.357 16.0861 280.295C16.1754 280.677 16.2311 281.042 16.39 281.754ZM43.0676 347.951C44.1217 351.766 46.1469 355.05 48.1581 358.368C49.0595 357.507 49.8242 356.789 50.6167 356C49.7853 355.672 49.0738 355.446 48.3428 355.168C48.5857 354.655 48.7252 354.302 48.8983 353.966C48.5021 353.854 48.1059 353.742 47.7236 353.595C47.7681 354.798 47.1264 354.396 46.6939 353.97C46.4345 353.715 46.4151 353.157 46.2728 352.706C45.8488 352.158 44.9616 351.465 44.9171 350.768C44.9229 349.336 44.0692 348.659 43.0676 347.951ZM55.78 381.014C56.455 382.446 57.1412 383.546 57.4619 384.76C57.7491 385.958 58.533 386.811 58.9765 387.917C59.4534 389.04 60.4382 389.992 61.1998 391.003C61.2612 390.949 61.3226 390.895 61.37 390.876C61.1218 390.289 60.854 389.65 60.6058 389.062C60.7007 389.025 60.7481 389.006 60.843 388.969C60.9964 389.087 61.1359 389.241 61.3759 389.444C61.0999 387.915 60.902 386.593 59.4065 386.02C59.2391 385.937 59.0745 385.644 58.9964 385.437C58.3996 383.706 57.4818 382.28 55.78 381.014ZM56.9461 366.525C57.0465 366.575 57.1944 366.606 57.2949 366.656C57.5209 366.388 57.747 366.12 58.0205 365.834C57.981 368.262 58.2851 368.708 60.1739 369.603C60.4083 369.719 60.5394 369.995 60.7458 370.182C60.8993 370.3 61.0946 370.313 61.2955 370.412C61.3458 370.184 61.4853 369.831 61.4128 369.711C60.2859 367.801 59.1254 365.875 57.9985 363.966C57.8367 363.97 57.7222 363.956 57.5604 363.96C57.3538 364.786 57.1332 365.647 56.9461 366.525ZM48.0465 310.664C47.0672 309.798 46.4339 309.273 45.7811 308.696C45.7336 309.221 45.6944 309.624 45.6414 310.062C45.2312 309.985 44.821 309.908 44.3634 309.85C44.4443 310.355 44.4805 310.668 44.5111 310.894C44.0089 310.645 43.5737 310.429 43.0715 310.18C42.9178 311.075 42.7866 311.812 42.5911 312.812C44.2067 312.474 45.3898 312.216 46.559 311.994C46.52 311.891 46.5284 311.768 46.4893 311.664C46.1071 311.517 45.7248 311.37 45.39 311.204C45.4179 311.133 45.4459 311.062 45.4738 310.992C46.163 310.869 46.8717 310.799 48.0465 310.664ZM44.8498 304.774C44.7773 304.653 44.7383 304.55 44.6797 304.394C44.158 304.093 43.3516 303.904 43.1954 303.489C42.9946 302.883 43.3017 302.107 43.4163 301.108C42.8749 301.262 42.1243 301.438 41.3932 301.667C41.6274 302.796 41.1556 304.292 42.3134 304.909C42.9691 305.276 43.9793 304.848 44.8498 304.774ZM30.5018 259.041C30.6328 259.823 30.7778 260.57 30.8753 261.336C31.0257 262.677 30.6069 264.242 32.5935 264.89C32.3929 263.271 32.1643 261.722 31.9804 260.365C31.4615 259.854 31.0151 259.464 30.5018 259.041ZM40.4243 289.538C40.5527 289.517 40.7145 289.513 40.8429 289.492C40.5976 287.682 40.3524 285.873 40.0737 284.046C39.9119 284.05 39.764 284.019 39.6356 284.04C39.6132 284.704 39.5907 285.368 39.5627 285.945C39.1721 285.92 38.7005 285.897 38.2625 285.891C38.3154 286.466 38.4018 287.058 38.4631 287.51C39.0044 287.356 39.3895 287.294 39.755 287.18C39.7606 287.267 39.8136 287.336 39.8192 287.423C39.6629 287.514 39.5066 287.605 39.4592 287.624C39.7465 288.315 40.0617 288.936 40.4243 289.538ZM46.381 324.694C46.5094 324.673 46.6042 324.636 46.7326 324.615C46.7662 324.125 46.97 323.509 46.7524 323.148C46.0271 321.944 45.1595 320.796 44.3729 319.646C44.3394 319.63 44.2445 319.667 44.2445 319.667C44.2584 320.138 44.4536 320.657 44.2805 320.993C43.9679 321.682 44.2299 323.247 44.7099 323.148C45.893 322.89 46.0072 323.918 46.381 324.694ZM69.4389 362.887C69.2491 363.468 68.9113 364.018 69.0229 364.242C69.8653 365.757 70.8026 367.235 71.9379 369.022C71.8042 367.943 71.7178 367.351 71.6314 366.76C71.5701 366.307 71.5479 365.452 71.4 365.421C70.1556 365.226 70.153 363.916 69.4389 362.887ZM42.8867 313.887C42.2897 312.663 41.7458 311.506 41.2019 310.35C41.0401 310.355 40.8922 310.323 40.7304 310.328C40.5712 311.135 40.1888 312 40.3337 312.748C40.5679 313.877 41.4803 314.202 42.8867 313.887ZM50.722 360.695C50.3565 360.303 50.164 360.081 49.7455 359.62C49.8431 360.386 49.9323 360.768 49.9741 361.168C50.3731 361.071 50.7721 360.973 51.0289 360.932C51.1236 361.401 51.1989 361.818 51.2742 362.235C51.3579 362.023 51.4417 361.812 51.4835 361.706C51.863 362.063 52.2228 362.368 52.6692 362.758C52.8787 361.722 53.0518 360.88 53.2166 360.16C52.3823 360.041 51.4671 359.925 50.5993 359.79C50.5993 359.79 50.669 360.12 50.722 360.695ZM63.2686 368.057C63.0649 368.167 62.8947 368.293 62.691 368.403C63.6031 370.249 64.4678 372.112 65.4134 373.974C65.5054 374.146 65.9714 374.082 66.4625 374.157C65.3328 371.95 64.3007 370.004 63.2686 368.057ZM12.0614 286.824C11.4335 287.399 11.0846 287.775 10.6827 288.082C10.4511 288.263 10.147 288.323 9.89582 288.452C10.066 288.831 10.1468 289.336 10.4007 289.504C10.9224 289.805 11.5753 289.875 12.5826 290.164C12.4182 288.858 12.237 287.798 12.0614 286.824ZM47.4409 327.077C47.1311 327.556 46.7013 327.934 46.7236 328.282C46.7514 328.718 47.0247 329.445 47.7391 328.955C48.1131 328.718 48.8386 328.403 48.8135 328.264C48.6184 327.239 48.1526 326.29 46.9612 325.657C47.1871 326.402 47.3293 326.853 47.4409 327.077ZM60.8819 358.095C60.5247 358.086 60.1536 358.113 59.749 358.124C60.2874 359.193 60.7337 360.089 61.2274 360.967C61.9638 362.345 62.4855 362.646 63.1915 362.279C62.91 360.662 60.622 360.371 60.8819 358.095ZM69.3856 380.333C69.8099 379.362 69.0372 378.177 67.776 378.227C67.9967 376.859 67.9967 376.859 67.2489 376.826C66.7574 378.777 67.9041 379.725 69.3856 380.333ZM36.6163 285.497C34.4649 285.569 36.1416 287.203 35.5918 287.985C35.5025 288.11 36.1329 288.844 36.4035 289.274C36.5458 289.218 36.6882 289.162 36.8305 289.106C36.7526 287.886 36.6942 286.717 36.6163 285.497ZM59.1793 345.391C59.037 345.447 58.8807 345.538 58.7384 345.594C58.0851 347.549 58.1186 347.566 60.6548 348.444C60.1499 347.391 59.6646 346.391 59.1793 345.391ZM54.5965 335.817C55.7152 336.836 56.714 337.753 57.7127 338.67C57.328 336.707 56.2233 335.653 54.5965 335.817ZM60.2391 363.769C60.7077 365.014 61.1623 366.295 61.6643 367.557C62.4989 365.649 61.3049 364.719 60.2391 363.769ZM-28.4372 335.238C-27.9239 335.661 -27.6588 336.003 -27.3436 336.118C-27.1622 336.165 -26.8413 335.86 -26.6431 335.663C-26.5064 335.52 -26.4617 335.204 -26.3054 335.113C-25.898 334.893 -25.4375 334.742 -24.9632 334.555C-25.0412 334.347 -25.0998 334.192 -25.1779 333.984C-26.1602 334.341 -27.1089 334.715 -28.4372 335.238ZM42.0486 335.038C42.2945 333.303 40.9749 332.184 40.6515 330.673C40.4143 330.767 40.1296 330.879 39.8924 330.972C40.3081 331.642 40.7237 332.313 41.078 333.037C41.4266 333.674 41.7139 334.366 42.0486 335.038ZM45.6585 291.796C45.2959 291.194 45.0337 290.642 44.9528 290.644C44.4923 290.796 44.0375 291.034 43.6691 291.358C43.6077 291.412 43.934 292.207 44.0484 292.221C44.4865 292.228 44.9609 292.041 45.6585 291.796ZM28.6404 292.092C28.7548 292.107 28.8218 292.14 28.9362 292.155C28.8248 290.918 28.6799 289.664 28.5685 288.427C28.4402 288.448 28.3258 288.433 28.1639 288.437C28.041 289.052 27.9321 289.631 27.8316 290.087C28.0909 290.849 28.3587 291.488 28.6404 292.092ZM17.2347 270.609C16.718 273.434 16.9354 274.301 18.0682 274.779C17.809 273.511 17.5357 272.278 17.2347 270.609ZM45.2287 340.16C44.5648 338.903 44.0655 337.937 43.5662 336.972C43.4239 337.028 43.3011 337.136 43.1588 337.192C43.3176 338.411 43.6606 339.467 45.2287 340.16ZM47.6055 358.854C47.8453 360.07 48.099 361.251 48.3833 362.658C49.3045 360.836 48.6043 359.771 47.6055 358.854ZM46.821 313.559C47.379 314.174 47.8365 314.738 48.308 315.267C49.2458 313.707 47.7446 313.553 47.1421 312.748C46.9885 313.136 46.8769 313.418 46.821 313.559ZM74.5628 373.827C74.6631 374.383 74.769 375.026 74.8248 375.392C75.4694 375.078 75.9717 374.821 76.6638 374.489C75.8044 374.232 75.0929 374.005 74.5628 373.827Z" fill="#A785FF"/>
<path d="M95.5027 294.949C95.2733 294.411 95.0774 293.89 94.8088 293.248C95.7157 293.19 96.8466 293.073 98.0166 293.061C99.2342 293.03 100.558 292.119 100.656 291.363C101.981 290.961 103.195 290.632 104.438 290.232C105.314 289.946 106.171 289.609 107.008 289.219C107.968 288.721 108.884 288.031 109.877 287.55C111.028 286.977 112.31 286.681 113.46 286.108C114.06 285.812 114.541 285.204 115.389 284.481C114.625 284.483 114.3 284.491 114.009 284.516C113.97 284.412 113.931 284.308 113.892 284.204C114.757 283.743 115.622 283.283 116.753 282.658C116.386 283.281 116.212 283.618 116.039 283.956C116.288 284.037 116.562 284.258 116.705 284.202C117.066 284 117.321 283.66 117.676 283.371C120.238 283.498 122.094 281.241 124.535 280.758C123.664 282.148 122.124 282.485 120.722 283.187C117.365 284.869 114.068 286.706 110.731 288.44C107.898 289.915 105.132 291.423 102.246 292.83C100.163 293.83 98.0359 294.638 95.9141 295.534C95.7881 295.344 95.6622 295.155 95.5027 294.949Z" fill="#A785FF"/>
<path d="M101.822 282.155C101.139 282.364 100.456 282.573 99.7399 282.766C99.1657 282.903 98.6306 283.143 98.0648 283.157C96.3007 283.168 95.1354 284.697 93.4353 284.95C92.8417 285.034 92.3539 285.762 91.604 286.443C91.4425 285.942 91.2475 285.424 91.0525 284.906C90.4867 284.921 89.7593 284.939 89.0319 284.958C89.8736 284.448 90.7154 283.938 91.6658 283.356C90.8187 282.768 90.2698 282.032 89.6175 282.973C89.5896 283.043 89.2357 282.826 89.035 282.726C88.7006 282.561 88.3662 282.395 88.0318 282.229C88.7566 280.903 89.5789 280.342 91.0725 281.419C91.4125 281.672 92.349 281.125 92.9315 280.866C94.2666 280.221 95.5487 279.509 96.8699 278.9C97.1681 278.752 97.6112 278.846 98.2244 278.813C97.7365 279.54 97.3658 280.072 97.0145 280.657C96.708 280.42 96.4349 280.201 95.9751 279.846C95.5096 280.416 94.9493 281.023 94.4754 281.715C94.4001 281.804 94.5283 282.289 94.662 282.356C95.2974 282.67 96.9029 281.444 96.995 280.605C97.6667 280.727 98.3244 280.884 99.0629 281.04C98.8316 281.22 98.5863 281.436 98.3549 281.616C98.3939 281.719 98.4329 281.823 98.4385 281.91C99.6286 281.531 100.805 281.187 102.028 280.824C101.908 281.228 101.875 281.717 101.822 282.155ZM91.9613 282.913C92.463 283.161 92.9061 283.255 93.1513 283.545C93.9594 284.535 94.3635 284.525 95.0075 283.201C93.5832 283.97 93.915 282.828 93.8204 281.854C93.1627 282.202 92.5996 282.513 91.9613 282.913Z" fill="#A785FF"/>
<path d="M90.2968 298.269C89.1432 298.961 88.0286 299.756 86.8359 300.344C85.3591 301.045 83.8237 301.589 82.1184 302.26C82.0461 301.635 81.9988 301.148 81.9014 300.384C81.7872 300.369 81.2995 300.591 80.9652 300.425C80.4776 300.141 80.1684 299.609 79.6447 299.013C80.0097 298.899 80.2466 298.806 80.4834 298.712C80.567 299.007 80.6839 299.317 80.787 299.663C81.2774 299.738 81.9294 299.808 82.7624 299.926C82.4114 299.499 82.1663 299.209 81.8877 298.903C82.8016 299.019 83.7015 299.17 84.6238 299.164C85.1086 299.151 85.5433 298.862 86.1619 298.915C86.8139 298.986 86.8976 298.269 86.5076 297.739C86.2763 297.414 85.8473 297.285 85.2204 296.848C85.9811 296.846 86.4185 296.853 86.9368 296.857C87.0398 297.203 87.1429 297.548 87.1484 297.635C88.2963 297.867 89.2827 298.104 90.3163 298.321L90.2968 298.269Z" fill="#A785FF"/>
<path d="M65.2484 276.462C66.6417 276.391 67.3693 275.059 68.5333 274.451C69.4314 274.007 70.1001 274.043 70.8862 273.882C70.945 274.038 71.0177 274.159 71.0428 274.299C70.2734 274.721 69.5235 275.196 68.7541 275.619C68.7792 275.758 68.7708 275.881 68.796 276.021C69.3583 275.919 69.8927 275.888 70.4019 275.717C70.9587 275.527 71.4567 275.182 72.0862 275.113C71.6216 276.492 69.3836 275.55 69.6378 277.751C70.5275 277.431 71.5124 277.073 72.4972 276.714C72.5364 276.819 72.5559 276.871 72.5951 276.975C70.4799 277.958 68.3786 278.905 66.0731 279.963C66.1684 278.909 66.2609 278.066 66.3254 277.293C65.9645 276.987 65.5897 276.716 65.2484 276.462Z" fill="#A785FF"/>
<path d="M91.67 274.76C90.1152 275.343 88.5941 275.942 87.0198 276.472C86.4634 276.662 85.8566 276.572 85.275 276.622C85.2639 276.447 85.2387 276.308 85.2611 276.15C86.7264 275.692 88.4767 275.63 89.5366 274.675C90.5825 273.755 91.6086 273.798 92.7075 273.455C93.949 273.056 95.2996 272.583 96.3288 271.401C97.0839 270.507 98.6721 270.448 100.023 269.976C99.7431 269.668 99.5502 269.445 99.2511 269.085C99.5699 268.99 99.911 268.736 100.045 268.802C101.136 269.597 101.927 269.017 102.819 268.486C103.275 268.247 103.935 268.405 104.572 268.721C102.861 269.395 101.091 269.914 99.4577 270.796C98.437 271.347 96.9467 271.666 96.9407 273.609C96.2866 273.031 95.7023 272.275 95.0143 273.203C93.9266 273.722 92.7913 274.258 91.67 274.76Z" fill="#A785FF"/>
<path d="M42.5028 366.996C42.3326 368.135 42.4607 369.126 43.4672 369.92C44.0805 370.393 44.5294 371.079 45.087 371.693C44.8165 371.77 44.546 371.846 44.242 371.906C44.6156 372.176 45.0645 372.356 45.3294 372.699C45.4353 372.835 45.2233 373.574 45.1089 373.559C44.515 373.644 43.8765 373.538 43.2769 373.536C43.4833 373.217 43.6897 372.898 43.8961 372.578C42.7531 371.421 41.2363 370.501 41.5406 368.417C41.549 368.294 41.443 368.158 41.3845 368.002C40.4256 366.177 39.528 364.299 38.5077 362.528C38.0673 361.719 37.4233 361.02 36.8601 360.32C36.258 359.515 35.8175 358.706 36.512 357.659C37.2145 359.019 37.85 360.347 38.5943 361.601C39.6341 363.424 40.7353 365.192 41.8364 366.961C41.9089 367.081 42.2937 367.019 42.5363 367.013L42.5028 366.996Z" fill="#A785FF"/>
<path d="M63.8569 304.272C63.5991 304.314 63.3553 304.32 63.0976 304.362C63.3891 303.319 63.3891 303.319 66.8915 303.615C66.7207 303.234 66.589 302.956 66.4518 302.591C66.5807 302.57 66.6423 302.516 66.7236 302.514C67.2363 302.641 67.7406 302.891 68.2814 302.948C68.7073 302.989 69.405 302.954 69.4891 302.741C69.6377 302.264 69.4837 301.636 69.4501 301.11C69.792 300.856 70.2376 300.441 70.7224 300.13C71.1315 299.909 71.5994 299.844 72.1907 299.671C71.8739 300.574 71.6833 301.158 71.4786 301.778C71.6131 301.844 71.714 301.894 71.8625 301.926C70.097 303.34 62.1978 306.333 61.0463 305.889C62.1223 305.405 63.0554 304.977 64.0222 304.566C63.9689 304.498 63.9297 304.393 63.8569 304.272Z" fill="#A785FF"/>
<path d="M74.1806 275.746C74.9972 275.305 75.8613 274.845 76.9296 274.274C76.3368 274.15 76.0069 274.07 75.6629 274.027C75.6238 273.923 75.6322 273.8 75.5931 273.696C76.7285 273.159 77.9114 272.603 79.0329 272.102C79.1419 272.029 79.3293 272.164 79.4775 272.195C80.2604 272.245 81.0769 272.312 81.8879 272.291C82.2933 272.281 82.7072 272.148 83.0931 272.085C83.1518 272.241 83.1965 272.433 83.2552 272.589C80.2937 273.785 77.3322 274.982 74.4042 276.195C74.3259 275.987 74.2533 275.866 74.1806 275.746Z" fill="#A785FF"/>
<path d="M52.4385 401.96C49.5373 397.577 46.3854 393.322 44.3059 388.378C44.4618 388.287 44.6317 388.161 44.7877 388.07C47.4577 392.633 50.0943 397.18 52.7643 401.743C52.6557 401.815 52.5471 401.888 52.4385 401.96Z" fill="#A785FF"/>
<path d="M6.83182 296.624C7.13183 296.985 7.41222 297.294 7.71224 297.655C7.24106 297.931 6.51747 298.336 5.71815 298.83C5.63966 298.622 5.55557 298.325 5.43224 297.924C3.48867 298.87 2.71985 301.63 0.201549 301.484C0.437176 301.092 0.658775 300.735 0.860752 300.325C1.99964 298.258 4.17593 297.64 5.95968 296.488C6.13077 296.361 6.55419 296.613 6.85144 296.676L6.83182 296.624Z" fill="#A785FF"/>
<path d="M75.2631 302.751C76.1472 302.937 76.9981 303.106 77.8822 303.292C77.9101 303.222 77.9184 303.1 77.9462 303.03C77.2984 302.751 76.6033 302.491 75.9555 302.212C75.9777 302.056 76.0333 301.915 76.0556 301.758C76.9342 301.857 77.7656 301.975 78.9862 302.117C78.2105 301.356 77.6795 300.883 77.1957 300.392C77.2569 300.338 77.3181 300.284 77.3793 300.231C78.7806 300.924 80.1485 301.601 81.5498 302.295C81.5665 302.555 81.5498 302.798 81.5664 303.058C80.2512 303.457 79.0138 304.062 77.6625 304.148C76.8895 304.186 76.0332 303.426 75.1991 303.013C75.2547 302.873 75.2686 302.838 75.2631 302.751Z" fill="#A785FF"/>
<path d="M78.7537 370.891C80.047 370.649 80.261 371.721 80.6586 372.631C80.603 372.772 80.5473 372.912 80.4917 373.053C79.8104 372.757 79.129 372.462 78.4755 372.097C78.3086 372.014 78.3142 371.597 78.2503 371.355C78.1669 371.062 78.1113 370.699 77.8916 370.548C77.227 370.009 76.8016 369.169 76.7738 368.231C76.7851 367.397 75.6644 366.297 74.8578 366.317C74.7299 366.338 74.5825 366.307 74.4824 366.258C74.4157 366.224 74.3155 366.175 74.196 366.074C74.26 365.812 74.3239 365.549 74.4213 365.304C74.5326 365.023 74.7329 364.618 74.9081 364.579C75.15 364.573 75.4754 364.86 75.6534 365.116C77.0354 366.765 77.3745 369.033 78.7537 370.891Z" fill="#A785FF"/>
<path d="M54.5631 391.131C54.6634 390.676 54.7831 390.273 54.8973 389.783C54.9307 389.799 55.1784 389.88 55.2257 389.861C54.7805 388.968 54.2963 387.972 53.7983 387.011C53.9681 386.884 54.1379 386.758 54.3271 386.684C56.0942 388.274 57.0597 390.475 58.2005 393.142C57.2403 392.541 56.5808 392.088 55.9129 391.757C55.6457 391.625 55.3145 391.755 55.0056 391.728C54.8469 391.524 54.6883 391.319 54.5631 391.131Z" fill="#A785FF"/>
<path d="M67.5143 281.538C68.1069 281.155 68.3864 280.956 68.6994 280.773C68.6408 280.617 68.5821 280.461 68.5094 280.34C67.6737 280.729 66.8716 281.135 66.0219 281.559C65.9632 281.403 65.9045 281.247 65.8123 281.074C68.2692 279.629 70.8965 278.564 73.8256 277.649C73.8954 277.98 73.9988 278.327 74.0546 278.693C74.0797 278.832 74.1049 278.972 74.1356 279.199C73.4816 279.128 72.9867 280.278 72.1708 279.196C72.0647 279.059 71.1199 279.521 70.6364 279.831C69.7783 280.378 69.0068 281.01 68.2158 281.59C68.1207 281.628 67.9866 281.561 67.5143 281.538Z" fill="#A785FF"/>
<path d="M85.1924 380.96C84.7877 380.464 84.383 379.967 83.7327 379.18C83.8107 379.895 83.8134 380.192 83.8636 380.47C83.6683 379.951 82.5881 379.541 83.5541 378.923C83.6155 378.869 83.5737 378.468 83.5011 378.347C83.0658 377.625 82.5829 376.921 82.1476 376.198C82.639 375.766 82.4214 374.898 81.6649 374.48C81.4305 374.364 81.2937 374.001 81.1347 373.795C82.4636 373.272 81.2465 372.499 81.2355 371.818C81.6849 371.999 81.6849 371.999 82.6978 374.401C83.175 375.525 83.775 376.541 84.3136 377.61C84.7852 378.646 85.2093 379.701 85.6335 380.756C85.4436 380.831 85.3012 380.887 85.1924 380.96Z" fill="#A785FF"/>
<path d="M76.3314 277.839C76.5469 277.395 76.6784 277.164 76.7624 276.952C76.2672 277.087 75.8196 277.204 75.372 277.32C75.3133 277.164 75.2742 277.06 75.2155 276.904C77.9206 275.748 80.5923 274.576 83.3114 273.385C83.3338 273.735 83.3896 274.102 83.4148 274.241C82.623 274.822 81.8844 275.472 81.0676 275.913C80.6591 276.134 80.1108 276.2 79.6661 276.107C78.8241 275.9 78.9724 275.932 78.3316 276.842C78.0071 277.358 77.1539 277.485 76.3314 277.839Z" fill="#A785FF"/>
<path d="M95.4797 295.479C95.6051 295.667 95.764 295.873 95.8894 296.061C94.4255 296.727 92.9615 297.392 91.4446 297.989C91.1128 298.12 90.6695 298.027 90.3126 298.018L90.3321 298.07C90.4883 297.473 90.678 296.893 90.8901 296.154C90.6364 295.986 90.2628 295.717 89.9227 295.464C91.0521 294.127 91.523 296.173 92.4069 296.063C92.6551 295.638 92.9034 295.213 93.1516 294.788C93.1767 294.927 93.1878 295.101 93.2128 295.24C93.9322 295.344 94.699 295.429 95.4797 295.479Z" fill="#A785FF"/>
<path d="M48.8395 386.479C48.8785 385.073 48.7535 384.885 47.7865 384.91C47.4504 383.444 46.3918 382.292 45.0859 382.065C45.3332 381.643 45.7945 381.284 45.7862 380.903C45.7724 380.435 45.4028 379.959 45.1611 379.462C45.9696 380.239 46.7921 380.981 47.5672 381.742C48.3424 382.502 47.8199 383.921 49.0925 384.634C49.9455 385.097 50.3566 386.474 51.1123 387.686C50.1593 387.173 49.5202 386.773 48.8673 386.409L48.8395 386.479Z" fill="#A785FF"/>
<path d="M53.4786 308.228C54.3758 308.083 55.1308 307.994 55.8663 307.854C55.6351 307.528 55.4373 307.22 54.922 306.501C56.8109 306.679 58.2903 306.781 59.9172 306.913C58.8222 308.266 55.3869 309.469 53.4786 308.228Z" fill="#A785FF"/>
<path d="M74.1617 300.1C74.3353 299.254 74.3411 298.325 74.5649 298.267C75.4463 298.069 75.9667 298.581 76.2435 299.608C76.5008 300.583 76.0475 300.612 75.4235 300.768C74.5756 300.983 73.7809 301.266 72.81 301.589C72.9164 301.218 73.0283 300.935 73.1627 300.493C73.0088 300.375 72.7347 300.154 72.4801 299.985C72.4885 299.862 72.5165 299.791 72.5249 299.668C73.1181 299.793 73.7644 299.987 74.1617 300.1Z" fill="#A785FF"/>
<path d="M38.7883 253.604C38.6304 256.257 38.509 258.714 38.3736 261.207C38.2918 261.209 38.2438 261.228 38.1479 261.265C37.956 259.293 37.7641 257.321 37.6202 255.329C37.6033 255.065 37.6823 254.763 37.6315 254.482C37.3634 253.111 38.0434 253.235 38.7883 253.604Z" fill="#A785FF"/>
<path d="M95.6802 277.445C95.1948 277.457 94.5642 277.735 94.2574 277.499C93.8306 277.161 93.6773 276.536 94.2576 275.98C94.4418 275.818 94.255 275.177 94.2384 274.409C95.3542 275.131 96.2302 275.65 97.0587 276.188C96.615 276.6 96.1574 277.049 95.6802 277.445Z" fill="#A785FF"/>
<path d="M75.3981 305.629C74.136 305.299 72.8878 304.933 71.5925 304.586C71.5564 304.276 71.4482 303.847 71.4732 303.483C71.5093 303.292 71.8393 303.163 72.0224 303.002C72.3636 303.547 72.7436 303.693 73.2317 303.265C73.2928 303.212 73.5258 303.327 73.5785 303.395C73.9141 304.354 75.8196 303.665 75.3981 305.629Z" fill="#A785FF"/>
<path d="M93.7165 292.164C93.8842 291.74 93.9542 291.056 94.2252 290.979C94.9851 290.68 95.4938 289.495 96.6307 290.27C96.3988 290.451 96.2283 290.578 96.0579 290.705C96.0775 290.757 96.083 290.844 96.1026 290.896C97.0441 290.644 98.0192 290.41 98.9607 290.158C98.9998 290.262 99.0389 290.366 99.078 290.47C97.4491 291.141 95.7727 291.831 94.1439 292.503C93.9903 292.384 93.8366 292.266 93.7165 292.164Z" fill="#A785FF"/>
<path d="M42.4427 366.979C42.6156 366.644 42.741 366.327 43.0393 365.674C43.992 367.41 44.7999 368.906 45.6551 370.383C46.0368 371.035 46.5077 371.563 47.0175 372.195C47.0036 372.23 46.8252 372.479 46.6607 372.692C45.2259 370.76 43.8246 368.844 42.4232 366.927L42.4427 366.979Z" fill="#A785FF"/>
<path d="M52.186 299.327C52.5511 299.423 52.9161 299.519 53.2812 299.615C53.2868 299.703 53.3064 299.755 53.3457 299.86C52.6577 300.071 52.0175 300.263 51.2817 300.493C50.8522 299.642 50.184 298.376 51.4701 298.079C52.2592 297.918 53.2394 296.152 54.2024 297.692C53.4161 298.152 52.7056 298.522 52.0148 298.944C52.1018 299.03 52.1271 299.17 52.186 299.327Z" fill="#A785FF"/>
<path d="M58.22 298.327C57.1993 298.459 56.159 298.539 55.1383 298.671C55.1187 298.618 55.0512 298.585 55.0315 298.532C55.757 298.126 56.4824 297.72 57.2079 297.314C57.1685 297.21 57.0954 297.088 57.042 297.019C56.8508 297.095 56.6596 297.17 56.4544 297.281C56.415 297.176 56.3419 297.055 56.3025 296.95C56.8368 296.62 57.4048 296.306 57.925 296.01C57.7226 295.91 57.3711 295.778 56.7835 295.529C57.3234 295.286 57.7198 295.1 58.1641 294.895C58.3355 295.789 58.5013 296.594 58.6672 297.4C58.5209 297.668 58.3803 298.024 58.1919 298.398C58.1722 298.346 58.22 298.327 58.22 298.327Z" fill="#A785FF"/>
<path d="M33.4564 359.352C32.9055 358.827 32.4074 358.37 31.8759 357.897C32.4271 356.404 30.6629 355.615 30.304 354.302C32.3243 355.05 33.8574 357.533 33.4564 359.352Z" fill="#A785FF"/>
<path d="M58.6711 399.84C58.2044 399.397 57.7377 398.954 57.3045 398.528C57.257 398.547 57.2291 398.617 57.1816 398.636C57.8857 400.001 58.6037 401.33 59.3078 402.694C59.2463 402.748 59.1709 402.838 59.0758 402.875C58.1928 401.76 57.1812 400.666 56.4547 399.46C56.2703 399.114 56.754 398.297 57.0504 397.344C57.8943 398.355 58.4057 398.99 58.9311 399.589C58.8221 399.661 58.7466 399.751 58.6711 399.84Z" fill="#A785FF"/>
<path d="M65.2655 276.561C64.7841 277.169 64.3223 277.829 63.8549 278.402C63.936 278.4 64.227 278.375 64.8427 278.342C64.0451 278.835 63.5134 279.164 63.0292 279.475C62.5508 278.856 62.106 278.254 61.6081 277.583C62.9037 277.252 64.0706 276.942 65.2375 276.632C65.2851 276.613 65.2655 276.561 65.2655 276.561Z" fill="#A785FF"/>
<path d="M47.4627 301.928C47.3481 301.406 47.2532 300.936 47.1386 300.413C47.5161 299.966 47.9272 299.535 48.3047 299.088L48.2571 299.107C49.0958 299.523 49.4171 300.232 49.3303 301.163C49.3303 301.163 49.6266 301.225 49.7775 301.554C48.9919 301.714 48.2343 301.803 47.4627 301.928Z" fill="#A785FF"/>
<path d="M51.2588 381.689C50.877 381.036 50.5536 380.538 50.3111 380.038C49.7342 378.867 49.1712 377.66 48.4437 376.162C50.6098 377.868 51.7777 380.175 51.2588 381.689Z" fill="#A785FF"/>
<path d="M61.7146 295.038C62.4277 295.055 62.851 295.096 63.4833 295.115C61.4554 296.299 61.1462 296.272 59.4641 294.26C60.4391 293.817 61.272 293.43 62.1049 293.043C62.2023 293.302 62.3471 293.542 62.4446 293.801C62.3415 293.96 62.2384 294.119 62.1353 294.279C62.0183 294.473 61.9486 294.649 61.7146 295.038Z" fill="#A785FF"/>
<path d="M39.2036 369.837C38.2043 368.122 37.2523 366.388 36.1221 364.398C37.0492 364.983 37.7035 365.35 38.1768 365.668C38.6416 367.118 39.0479 368.413 39.4542 369.709C39.3596 369.746 39.2649 369.783 39.2036 369.837Z" fill="#A785FF"/>
<path d="M54.5478 391.214C54.7063 391.418 54.8453 391.571 55.0038 391.775C55.3734 392.756 54.6589 392.444 54.2613 392.541L54.2808 392.593C53.6831 392.087 53.1187 391.598 52.3291 390.872C52.3486 390.923 52.1985 390.597 52.1763 390.25C52.1596 389.99 52.2514 389.658 52.421 389.532C52.5767 389.441 52.9521 389.501 53.0911 389.654C53.5081 390.112 53.8167 390.642 54.2198 391.136C54.1975 391.292 54.4199 391.235 54.5478 391.214Z" fill="#A785FF"/>
<path d="M54.1767 392.618C54.4181 393.113 54.6123 393.627 54.8342 394.071C54.1657 393.95 53.5304 393.845 52.9091 393.706C52.8536 393.845 52.751 394.003 52.6955 394.143C52.1379 393.241 51.5803 392.339 51.0228 391.438C52.2294 391.908 53.2364 392.28 54.1962 392.67L54.1767 392.618Z" fill="#A785FF"/>
<path d="M95.6588 277.378C96.151 276.945 96.5957 276.531 97.0879 276.098C98.0359 275.934 99.0035 275.821 99.9515 275.657L99.932 275.605C99.3782 276.092 98.7909 276.562 98.0525 277.212C97.9994 277.143 98.2398 277.347 98.5138 277.568C98.3908 277.676 98.2677 277.784 98.1782 277.909C97.3086 277.774 96.5004 277.584 95.6588 277.378Z" fill="#A785FF"/>
<path d="M0.75686 304.67C1.45306 303.826 2.05942 303.107 2.72194 302.246C2.9577 302.363 3.42923 302.597 3.90076 302.831C3.79389 304.733 1.97508 304.34 0.908395 305C0.849468 304.844 0.717576 304.566 0.75686 304.67Z" fill="#A785FF"/>
<path d="M35.2813 339.373C36.1991 339.28 37.7803 341.962 38.148 345.182C37.1636 343.217 36.2127 341.269 35.2813 339.373Z" fill="#A785FF"/>
<path d="M84.4842 277.688C84.1565 277.906 83.8343 278.213 83.4674 278.328C82.4282 278.617 80.8319 278.079 81.1004 280.248C81.12 280.3 80.6914 280.469 80.6718 280.417C80.3722 280.056 80.025 279.714 79.9018 279.314C79.8374 279.07 80.0952 278.519 80.3193 278.461C81.6581 278.023 83.0026 277.673 84.361 277.287C84.4002 277.391 84.459 277.548 84.4842 277.688Z" fill="#A785FF"/>
<path d="M77.8833 287.878C78.5067 286.403 79.6746 285.793 81.1345 285.667C81.1036 285.95 81.0923 286.284 81.0614 286.566C80.6038 286.806 80.1125 287.03 79.6548 287.27C79.4499 287.381 79.2365 287.615 79.1523 287.828C79.068 288.041 79.1185 288.321 79.1016 288.568C78.9416 288.361 78.8097 288.083 78.6076 287.983C78.4195 287.847 78.1275 287.872 77.8777 287.791C77.8636 287.826 77.8833 287.878 77.8833 287.878Z" fill="#A785FF"/>
<path d="M40.5301 267.531C42.0211 268.654 42.2878 270.019 41.7509 273.621C41.3047 271.486 40.8977 269.456 40.5301 267.531Z" fill="#A785FF"/>
<path d="M48.7386 386.49C49.3553 387.55 49.9387 388.593 50.5554 389.652C50.4332 389.759 50.3109 389.866 50.1886 389.974C49.1246 388.735 48.1078 387.478 47.0438 386.239C47.6328 386.363 48.2218 386.486 48.7913 386.558C48.758 386.542 48.7386 386.49 48.7386 386.49Z" fill="#A785FF"/>
<path d="M42.4925 374.772C43.0005 374.897 43.5224 374.988 44.2109 375.161C44.4469 375.57 44.9077 376.216 45.4129 377.052C45.2575 377.142 44.8771 377.498 44.7911 377.414C43.8694 376.624 42.5813 376.155 42.4925 374.772Z" fill="#A785FF"/>
<path d="M61.0596 310.601C59.9996 310.663 58.9452 310.811 57.874 310.7C57.4856 310.676 57.1387 310.045 56.8473 309.775C57.6798 309.685 58.4124 309.545 59.1089 309.596C59.8054 309.647 60.5047 309.993 61.1928 310.165C61.1512 310.27 61.1151 310.461 61.0596 310.601Z" fill="#A785FF"/>
<path d="M88.8604 270.917C87.2786 272.886 85.585 273.613 84.2948 273.015C85.8736 272.273 87.3572 271.569 88.8604 270.917Z" fill="#A785FF"/>
<path d="M54.5714 385.643C53.1459 386.115 53.093 386.046 51.9214 382.143C52.7871 383.287 53.6528 384.431 54.5714 385.643Z" fill="#A785FF"/>
<path d="M73.894 361.456C73.7411 360.33 73.0818 359.877 72.0439 360.078C72.3695 359.861 72.7173 359.487 73.0595 359.53C73.4157 359.538 73.8413 359.875 74.0722 360.199C74.4951 360.745 74.8567 361.344 75.1237 361.981C75.2211 362.239 74.9539 362.611 74.8482 362.979C74.5394 362.448 74.2167 361.952 73.894 361.456Z" fill="#A785FF"/>
<path d="M46.9035 287.794C47.2651 288.1 47.6408 288.372 48.0025 288.679C48.0782 288.589 48.1399 288.535 48.2157 288.445C48.112 288.096 47.9942 287.783 47.8513 287.33C48.2943 287.126 48.8664 286.9 49.4384 286.675C49.5197 287.182 49.5421 287.533 49.5841 287.936C49.2953 287.75 48.9925 287.6 48.67 287.397C48.7429 288.027 48.8241 288.535 48.8969 289.165C48.2604 289.146 47.6576 289.144 47.0687 289.106C47.0407 288.668 47.0128 288.23 46.9848 287.791L46.9035 287.794Z" fill="#A785FF"/>
<path d="M47.4782 378.021C45.6111 377.39 46.243 375.392 44.9771 374.05C46.8942 374.958 47.0749 376.518 47.4782 378.021Z" fill="#A785FF"/>
<path d="M99.6073 278.993C99.3468 278.736 99.0667 278.427 98.6999 278.033C99.9801 277.439 101.384 276.736 102.807 276.086C102.846 276.19 102.919 276.311 102.958 276.415C102.311 276.73 101.61 276.976 101.07 277.429C100.462 277.848 100.047 278.49 99.6073 278.993Z" fill="#A785FF"/>
<path d="M87.2122 295.937C85.8221 296.216 84.5601 296.475 83.2982 296.734C83.6382 295.471 85.3599 295.061 87.2122 295.937Z" fill="#A785FF"/>
<path d="M62.3009 281.941C61.7141 281.904 61.1133 281.901 60.5265 281.864C60.4874 281.76 60.4008 281.675 60.3617 281.571C61.8064 281.061 63.2176 280.535 64.6624 280.026C64.6819 280.078 64.735 280.147 64.7685 280.163C63.9301 280.762 63.0917 281.361 62.2673 281.924L62.3009 281.941Z" fill="#A785FF"/>
<path d="M91.6416 274.821C92.7669 274.318 93.9063 273.779 95.0316 273.276C95.0007 273.558 95.0624 274.013 94.9529 274.086C93.8809 274.658 92.7416 275.197 91.5068 275.774C91.5461 275.369 91.6107 275.103 91.6416 274.821Z" fill="#A785FF"/>
<path d="M76.6892 298.173C77.2406 298.194 77.4829 298.188 77.8394 298.196C77.8088 297.971 77.7866 297.623 77.7087 296.911C78.3992 298.095 79.0007 298.898 80.1204 297.685C80.1315 297.859 80.1287 298.068 80.1398 298.242C79.5493 298.623 78.9449 299.039 78.4018 299.401C77.8755 299.014 77.4021 298.695 76.6892 298.173Z" fill="#A785FF"/>
<path d="M73.8732 361.473C74.1957 361.968 74.5181 362.464 74.8406 362.959C74.8239 363.202 74.7933 363.481 74.7766 363.724C74.2679 362.592 72.3885 362.501 72.6028 360.551C73.1949 360.97 73.5341 361.221 73.8732 361.473Z" fill="#A785FF"/>
<path d="M87.9055 294.194C88.8128 293.719 89.7285 293.121 91.2534 294.213C89.9593 294.454 89.0019 294.653 88.0112 294.835C88.014 294.626 87.9834 294.401 87.9055 294.194Z" fill="#A785FF"/>
<path d="M64.1159 347.274C65.0969 347.423 65.5845 348.212 65.916 349.093C66.072 349.507 66.0719 350.013 66.1666 350.481C66.0579 350.553 65.9631 350.591 65.8544 350.663C65.2638 349.528 64.7066 348.409 64.1159 347.274Z" fill="#A785FF"/>
<path d="M62.2122 281.982C62.8473 282.296 63.4823 282.611 64.0839 282.909C64.0616 283.066 64.0058 283.207 63.9835 283.364C63.1897 283.35 62.4154 283.387 61.4127 283.395C61.8055 282.706 62.0256 282.352 62.2596 281.963L62.2122 281.982Z" fill="#A785FF"/>
<path d="M84.5837 279.066C85.2419 278.927 85.8665 278.77 86.8915 278.516C86.4405 279.352 86.1632 279.85 85.8298 280.49C85.3341 280.117 84.9253 279.829 84.5164 279.542C84.5529 279.348 84.5753 279.189 84.5837 279.066Z" fill="#A785FF"/>
<path d="M50.3649 383.849C49.7955 382.553 49.3378 381.481 48.8465 380.392C48.9554 380.32 49.0169 380.266 49.1258 380.193C49.7399 381.174 50.354 382.154 50.9542 383.17C50.9737 383.222 50.6051 383.546 50.3649 383.849Z" fill="#A785FF"/>
<path d="M99.9372 275.582C100.32 275.222 100.723 274.914 101.324 274.408C101.204 274.306 100.964 274.102 100.569 273.78C101.593 274.034 102.171 274.194 102.946 274.367C101.88 274.727 101.388 276.175 99.9512 275.546C99.9176 275.53 99.9372 275.582 99.9372 275.582Z" fill="#A785FF"/>
<path d="M65.6747 307.524C66.8126 307.373 67.8366 306.2 69.2914 307.466C67.9922 307.621 66.807 307.791 65.6357 307.925C65.658 307.768 65.6664 307.646 65.6747 307.524Z" fill="#A785FF"/>
<path d="M101.977 273.355C101.703 272.626 101.409 271.844 101.096 271.011C101.205 270.938 101.471 270.773 101.832 270.571C101.434 271.984 102.378 271.732 103.232 271.605C102.708 272.319 102.322 272.89 101.977 273.355Z" fill="#A785FF"/>
<path d="M56.5867 274.808C57.7282 274.358 58.9173 273.89 60.0588 273.44C60.098 273.544 60.1707 273.665 60.1958 273.804C59.0599 274.341 57.9575 274.895 56.8216 275.433C56.7433 275.224 56.665 275.016 56.5867 274.808Z" fill="#A785FF"/>
<path d="M102.696 288.2C102.796 287.742 102.841 287.425 102.892 287.196C103.916 286.942 104.94 286.688 106.012 286.415C106.065 286.484 106.104 286.588 106.124 286.64C104.988 287.178 103.899 287.696 102.696 288.2Z" fill="#A785FF"/>
<path d="M78.2732 271.653C77.2182 272.188 76.2723 272.65 75.3265 273.112C75.3519 271.727 75.3854 271.744 78.2732 271.653Z" fill="#A785FF"/>
<path d="M48.8845 370.664C48.9541 370.993 49.0237 371.322 49.0933 371.652C49.032 371.705 48.9373 371.743 48.862 371.832C48.163 370.77 47.464 369.708 46.7789 368.61C46.9015 368.503 47.0102 368.43 47.1327 368.322C47.4363 368.768 47.7064 369.196 48.0239 369.606C48.308 369.999 48.6394 370.374 48.9374 370.732C48.904 370.716 48.8845 370.664 48.8845 370.664Z" fill="#A785FF"/>
<path d="M25.0326 284.816C24.1373 285.049 23.5247 284.872 23.5612 283.662C23.6005 283.258 23.7404 282.905 23.8272 282.482C24.1769 282.613 24.5126 282.78 24.8958 282.927C24.546 283.304 24.2383 283.575 23.9641 283.862C24.3976 284.289 24.6913 284.562 25.0326 284.816Z" fill="#A785FF"/>
</g>
</g>
<defs>
<filter id="filter0_f_158_7558" x="-370.944" y="-595.955" width="1686.23" height="1573.33" filterUnits="userSpaceOnUse" color-interpolation-filters="sRGB">
<feFlood flood-opacity="0" result="BackgroundImageFix"/>
<feBlend mode="normal" in="SourceGraphic" in2="BackgroundImageFix" result="shape"/>
<feGaussianBlur stdDeviation="100" result="effect1_foregroundBlur_158_7558"/>
</filter>
<radialGradient id="paint0_radial_158_7558" cx="0" cy="0" r="1" gradientUnits="userSpaceOnUse" gradientTransform="translate(472.17 190.712) rotate(90) scale(586.667 643.114)">
<stop stop-color="#00FFC2"/>
<stop offset="1" stop-color="#00FFC2" stop-opacity="0"/>
</radialGradient>
<clipPath id="clip0_158_7558">
<rect width="473" height="427" fill="white"/>
</clipPath>
</defs>
</svg>
